<svg xmlns="http://www.w3.org/2000/svg" xmlns:xlink="http://www.w3.org/1999/xlink" width="500" zoomAndPan="magnify" viewBox="0 0 375 374.999991" height="500" preserveAspectRatio="xMidYMid meet" version="1.0"><defs><clipPath id="567713a1f9"><path d="M 7.332031 29 L 365.082031 29 L 365.082031 348.808594 L 7.332031 348.808594 Z M 7.332031 29 " clip-rule="nonzero"/></clipPath></defs><g clip-path="url(#567713a1f9)"><path fill="#000000" d="M 335.351562 92.277344 L 298.34375 92.277344 L 298.34375 59.261719 C 298.34375 58.289062 298.292969 57.324219 298.195312 56.359375 C 298.097656 55.394531 297.957031 54.433594 297.765625 53.484375 C 297.574219 52.535156 297.335938 51.59375 297.054688 50.667969 C 296.769531 49.738281 296.441406 48.828125 296.070312 47.929688 C 295.695312 47.035156 295.28125 46.160156 294.824219 45.304688 C 294.363281 44.449219 293.867188 43.621094 293.324219 42.8125 C 292.785156 42.007812 292.207031 41.230469 291.589844 40.480469 C 290.976562 39.730469 290.324219 39.011719 289.636719 38.328125 C 288.949219 37.640625 288.230469 36.992188 287.480469 36.375 C 286.730469 35.757812 285.953125 35.183594 285.144531 34.644531 C 284.335938 34.105469 283.503906 33.605469 282.648438 33.148438 C 281.792969 32.6875 280.917969 32.273438 280.019531 31.902344 C 279.125 31.53125 278.210938 31.203125 277.28125 30.921875 C 276.351562 30.636719 275.410156 30.402344 274.460938 30.210938 C 273.507812 30.019531 272.546875 29.875 271.582031 29.777344 C 270.617188 29.683594 269.648438 29.632812 268.675781 29.628906 L 37 29.628906 C 36.03125 29.632812 35.0625 29.683594 34.097656 29.777344 C 33.128906 29.875 32.171875 30.019531 31.21875 30.210938 C 30.265625 30.402344 29.324219 30.636719 28.394531 30.921875 C 27.46875 31.203125 26.554688 31.53125 25.65625 31.902344 C 24.761719 32.273438 23.882812 32.6875 23.027344 33.148438 C 22.171875 33.605469 21.339844 34.105469 20.535156 34.644531 C 19.726562 35.183594 18.949219 35.757812 18.195312 36.375 C 17.445312 36.992188 16.726562 37.640625 16.042969 38.328125 C 15.355469 39.011719 14.703125 39.730469 14.085938 40.480469 C 13.46875 41.230469 12.890625 42.007812 12.351562 42.8125 C 11.8125 43.621094 11.3125 44.449219 10.855469 45.304688 C 10.394531 46.160156 9.980469 47.035156 9.609375 47.929688 C 9.234375 48.828125 8.90625 49.738281 8.625 50.667969 C 8.339844 51.59375 8.105469 52.535156 7.914062 53.484375 C 7.722656 54.433594 7.578125 55.394531 7.480469 56.359375 C 7.386719 57.324219 7.335938 58.289062 7.332031 59.261719 L 7.332031 197.921875 C 7.335938 199.589844 7.480469 201.246094 7.761719 202.890625 C 8.046875 204.535156 8.464844 206.144531 9.019531 207.714844 C 9.570312 209.289062 10.253906 210.804688 11.0625 212.265625 C 11.875 213.722656 12.800781 215.101562 13.84375 216.40625 C 14.886719 217.707031 16.03125 218.914062 17.277344 220.023438 C 18.523438 221.132812 19.855469 222.132812 21.269531 223.019531 C 22.683594 223.90625 24.164062 224.667969 25.707031 225.304688 C 27.25 225.941406 28.835938 226.445312 30.464844 226.816406 L 25.222656 279.113281 C 25.175781 279.6875 25.210938 280.257812 25.328125 280.824219 C 25.441406 281.390625 25.632812 281.929688 25.902344 282.441406 C 26.167969 282.953125 26.5 283.417969 26.898438 283.835938 C 27.296875 284.253906 27.746094 284.613281 28.242188 284.902344 C 29.152344 285.449219 30.140625 285.71875 31.203125 285.703125 C 32.5 285.683594 33.671875 285.292969 34.71875 284.535156 L 73.765625 255.644531 L 73.765625 260.695312 C 73.765625 261.660156 73.816406 262.625 73.910156 263.589844 C 74.007812 264.550781 74.152344 265.507812 74.34375 266.453125 C 74.535156 267.402344 74.769531 268.339844 75.054688 269.265625 C 75.335938 270.1875 75.664062 271.097656 76.035156 271.992188 C 76.40625 272.882812 76.820312 273.757812 77.28125 274.609375 C 77.738281 275.460938 78.234375 276.289062 78.773438 277.09375 C 79.3125 277.894531 79.890625 278.671875 80.507812 279.417969 C 81.121094 280.164062 81.773438 280.878906 82.457031 281.5625 C 83.144531 282.246094 83.859375 282.894531 84.609375 283.507812 C 85.359375 284.121094 86.136719 284.695312 86.941406 285.230469 C 87.746094 285.769531 88.578125 286.265625 89.429688 286.71875 C 90.285156 287.175781 91.160156 287.585938 92.054688 287.957031 C 92.949219 288.328125 93.859375 288.652344 94.789062 288.933594 C 95.714844 289.210938 96.652344 289.445312 97.601562 289.636719 C 98.550781 289.824219 99.507812 289.964844 100.472656 290.058594 C 101.4375 290.15625 102.402344 290.203125 103.371094 290.203125 L 260.65625 290.203125 L 337.636719 347.183594 C 338.695312 347.980469 339.886719 348.371094 341.210938 348.351562 C 342.257812 348.363281 343.222656 348.097656 344.113281 347.550781 C 344.621094 347.277344 345.078125 346.9375 345.484375 346.527344 C 345.890625 346.121094 346.230469 345.660156 346.5 345.148438 C 346.769531 344.636719 346.957031 344.101562 347.066406 343.535156 C 347.171875 342.964844 347.195312 342.398438 347.132812 341.824219 L 341.890625 289.523438 C 343.519531 289.160156 345.109375 288.660156 346.65625 288.03125 C 348.199219 287.398438 349.683594 286.640625 351.097656 285.757812 C 352.515625 284.878906 353.851562 283.882812 355.101562 282.777344 C 356.351562 281.671875 357.496094 280.464844 358.542969 279.167969 C 359.589844 277.867188 360.519531 276.488281 361.332031 275.03125 C 362.144531 273.574219 362.828125 272.058594 363.386719 270.484375 C 363.941406 268.914062 364.363281 267.304688 364.648438 265.660156 C 364.933594 264.019531 365.078125 262.363281 365.082031 260.695312 L 365.082031 121.96875 C 365.082031 120.996094 365.035156 120.027344 364.941406 119.058594 C 364.84375 118.09375 364.703125 117.132812 364.511719 116.175781 C 364.320312 115.222656 364.085938 114.28125 363.804688 113.351562 C 363.519531 112.421875 363.191406 111.507812 362.820312 110.609375 C 362.449219 109.710938 362.03125 108.832031 361.574219 107.972656 C 361.113281 107.117188 360.613281 106.28125 360.074219 105.472656 C 359.53125 104.664062 358.953125 103.886719 358.335938 103.132812 C 357.71875 102.382812 357.0625 101.664062 356.375 100.976562 C 355.6875 100.289062 354.964844 99.636719 354.214844 99.019531 C 353.460938 98.402344 352.679688 97.824219 351.871094 97.28125 C 351.0625 96.742188 350.226562 96.242188 349.367188 95.785156 C 348.507812 95.324219 347.628906 94.910156 346.730469 94.539062 C 345.832031 94.167969 344.914062 93.839844 343.984375 93.558594 C 343.050781 93.273438 342.109375 93.039062 341.152344 92.847656 C 340.199219 92.660156 339.234375 92.515625 338.265625 92.421875 C 337.296875 92.324219 336.328125 92.277344 335.351562 92.277344 Z M 241.722656 106.9375 L 63.957031 108.171875 C 63.5 108.296875 63.035156 108.367188 62.558594 108.382812 C 62.085938 108.398438 61.617188 108.363281 61.152344 108.273438 C 60.6875 108.179688 60.238281 108.039062 59.804688 107.84375 C 59.375 107.648438 58.96875 107.410156 58.59375 107.121094 C 58.214844 106.832031 57.878906 106.507812 57.574219 106.140625 C 57.273438 105.777344 57.019531 105.378906 56.808594 104.957031 C 56.597656 104.53125 56.441406 104.089844 56.332031 103.628906 C 56.226562 103.167969 56.171875 102.699219 56.171875 102.226562 C 56.171875 101.753906 56.226562 101.285156 56.332031 100.824219 C 56.441406 100.363281 56.597656 99.921875 56.808594 99.496094 C 57.019531 99.074219 57.273438 98.679688 57.574219 98.3125 C 57.878906 97.945312 58.214844 97.621094 58.59375 97.332031 C 58.96875 97.046875 59.375 96.804688 59.804688 96.609375 C 60.238281 96.414062 60.6875 96.273438 61.152344 96.183594 C 61.617188 96.089844 62.085938 96.054688 62.558594 96.070312 C 63.035156 96.085938 63.5 96.160156 63.957031 96.28125 L 241.722656 95.050781 C 242.375 95.226562 242.980469 95.503906 243.542969 95.882812 C 244.105469 96.257812 244.59375 96.714844 245.003906 97.253906 C 245.414062 97.789062 245.730469 98.378906 245.945312 99.019531 C 246.164062 99.660156 246.273438 100.320312 246.273438 100.996094 C 246.273438 101.671875 246.164062 102.328125 245.945312 102.96875 C 245.730469 103.609375 245.414062 104.199219 245.003906 104.734375 C 244.59375 105.273438 244.105469 105.730469 243.542969 106.109375 C 242.980469 106.484375 242.375 106.761719 241.722656 106.9375 Z M 247.890625 157.019531 C 247.890625 157.425781 247.851562 157.824219 247.769531 158.222656 C 247.691406 158.621094 247.574219 159.003906 247.417969 159.378906 C 247.265625 159.75 247.074219 160.105469 246.851562 160.441406 C 246.625 160.78125 246.367188 161.089844 246.082031 161.375 C 245.796875 161.664062 245.484375 161.917969 245.148438 162.144531 C 244.8125 162.367188 244.457031 162.558594 244.082031 162.710938 C 243.707031 162.867188 243.320312 162.984375 242.925781 163.0625 C 242.527344 163.140625 242.125 163.179688 241.722656 163.179688 L 64.140625 164.351562 C 63.488281 164.175781 62.878906 163.898438 62.320312 163.519531 C 61.757812 163.140625 61.269531 162.683594 60.859375 162.148438 C 60.449219 161.609375 60.132812 161.023438 59.917969 160.382812 C 59.699219 159.742188 59.589844 159.082031 59.589844 158.40625 C 59.589844 157.730469 59.699219 157.074219 59.917969 156.433594 C 60.132812 155.792969 60.449219 155.203125 60.859375 154.664062 C 61.269531 154.128906 61.757812 153.671875 62.320312 153.292969 C 62.878906 152.917969 63.488281 152.640625 64.140625 152.460938 L 241.722656 151.105469 C 242.117188 151.105469 242.507812 151.144531 242.894531 151.21875 C 243.28125 151.292969 243.660156 151.40625 244.027344 151.550781 C 244.390625 151.699219 244.742188 151.878906 245.074219 152.09375 C 245.40625 152.308594 245.714844 152.550781 245.996094 152.824219 C 246.28125 153.097656 246.539062 153.394531 246.765625 153.714844 C 246.992188 154.039062 247.1875 154.378906 247.351562 154.738281 C 247.511719 155.097656 247.640625 155.46875 247.730469 155.855469 C 247.820312 156.238281 247.875 156.625 247.890625 157.019531 Z M 353.179688 260.695312 C 353.171875 261.273438 353.136719 261.851562 353.074219 262.425781 C 353.011719 263.003906 352.921875 263.574219 352.804688 264.140625 C 352.6875 264.707031 352.539062 265.269531 352.367188 265.820312 C 352.195312 266.375 351.996094 266.917969 351.769531 267.449219 C 351.542969 267.984375 351.292969 268.503906 351.015625 269.015625 C 350.738281 269.523438 350.4375 270.015625 350.109375 270.496094 C 349.785156 270.976562 349.4375 271.4375 349.066406 271.882812 C 348.695312 272.328125 348.304688 272.757812 347.894531 273.164062 C 347.480469 273.570312 347.050781 273.957031 346.597656 274.324219 C 346.148438 274.6875 345.683594 275.03125 345.199219 275.351562 C 344.714844 275.671875 344.21875 275.964844 343.707031 276.238281 C 343.191406 276.507812 342.667969 276.753906 342.132812 276.976562 C 341.597656 277.195312 341.050781 277.390625 340.496094 277.554688 C 339.9375 277.722656 339.378906 277.863281 338.808594 277.976562 C 338.238281 278.085938 337.664062 278.171875 337.089844 278.226562 C 336.511719 278.285156 335.933594 278.3125 335.351562 278.3125 C 334.519531 278.332031 333.722656 278.511719 332.964844 278.855469 C 332.203125 279.195312 331.539062 279.671875 330.972656 280.285156 C 330.390625 280.890625 329.964844 281.59375 329.695312 282.390625 C 329.425781 283.1875 329.335938 284.007812 329.433594 284.84375 L 334.242188 329.625 L 266.394531 279.484375 C 265.34375 278.722656 264.171875 278.335938 262.878906 278.3125 L 103.371094 278.3125 C 102.792969 278.3125 102.214844 278.285156 101.640625 278.226562 C 101.0625 278.171875 100.492188 278.085938 99.925781 277.972656 C 99.355469 277.863281 98.796875 277.722656 98.242188 277.554688 C 97.6875 277.386719 97.144531 277.195312 96.609375 276.972656 C 96.074219 276.753906 95.554688 276.507812 95.042969 276.234375 C 94.53125 275.960938 94.035156 275.667969 93.554688 275.347656 C 93.074219 275.027344 92.609375 274.683594 92.160156 274.316406 C 91.714844 273.949219 91.285156 273.5625 90.875 273.15625 C 90.464844 272.75 90.078125 272.320312 89.707031 271.875 C 89.339844 271.429688 88.996094 270.96875 88.671875 270.488281 C 88.351562 270.007812 88.050781 269.511719 87.777344 269.003906 C 87.503906 268.496094 87.257812 267.976562 87.035156 267.441406 C 86.8125 266.910156 86.613281 266.367188 86.445312 265.8125 C 86.277344 265.261719 86.132812 264.703125 86.019531 264.136719 C 85.902344 263.570312 85.816406 263 85.757812 262.421875 C 85.699219 261.847656 85.671875 261.273438 85.667969 260.695312 L 85.667969 246.835938 L 111.699219 227.554688 L 268.984375 227.554688 C 269.957031 227.550781 270.925781 227.503906 271.890625 227.40625 C 272.855469 227.308594 273.816406 227.164062 274.769531 226.972656 C 275.71875 226.785156 276.660156 226.546875 277.589844 226.265625 C 278.519531 225.980469 279.429688 225.652344 280.328125 225.28125 C 281.226562 224.910156 282.101562 224.496094 282.957031 224.035156 C 283.8125 223.578125 284.644531 223.082031 285.453125 222.542969 C 286.261719 222.003906 287.039062 221.425781 287.789062 220.808594 C 288.539062 220.195312 289.257812 219.542969 289.945312 218.855469 C 290.632812 218.171875 291.285156 217.453125 291.898438 216.703125 C 292.515625 215.953125 293.09375 215.175781 293.632812 214.371094 C 294.175781 213.566406 294.671875 212.734375 295.132812 211.878906 C 295.589844 211.023438 296.003906 210.148438 296.378906 209.253906 C 296.75 208.359375 297.078125 207.445312 297.363281 206.519531 C 297.644531 205.589844 297.882812 204.652344 298.074219 203.699219 C 298.261719 202.75 298.40625 201.792969 298.503906 200.824219 C 298.601562 199.859375 298.652344 198.894531 298.652344 197.921875 L 298.652344 104.230469 L 335.660156 104.230469 C 336.242188 104.230469 336.824219 104.257812 337.40625 104.3125 C 337.984375 104.371094 338.558594 104.457031 339.132812 104.570312 C 339.703125 104.683594 340.265625 104.824219 340.824219 104.992188 C 341.382812 105.160156 341.929688 105.355469 342.46875 105.578125 C 343.007812 105.800781 343.535156 106.046875 344.046875 106.320312 C 344.5625 106.597656 345.0625 106.894531 345.546875 107.214844 C 346.03125 107.539062 346.5 107.882812 346.949219 108.253906 C 347.398438 108.621094 347.832031 109.011719 348.246094 109.421875 C 348.65625 109.832031 349.046875 110.261719 349.417969 110.710938 C 349.789062 111.160156 350.136719 111.625 350.460938 112.109375 C 350.785156 112.59375 351.085938 113.089844 351.363281 113.601562 C 351.636719 114.113281 351.886719 114.640625 352.113281 115.175781 C 352.335938 115.714844 352.535156 116.257812 352.707031 116.816406 C 352.875 117.371094 353.019531 117.933594 353.132812 118.503906 C 353.25 119.074219 353.335938 119.648438 353.394531 120.230469 C 353.453125 120.808594 353.484375 121.386719 353.488281 121.96875 Z M 353.179688 260.695312 " fill-opacity="1" fill-rule="nonzero"/></g></svg>