<svg xmlns="http://www.w3.org/2000/svg" xmlns:xlink="http://www.w3.org/1999/xlink" width="500" zoomAndPan="magnify" viewBox="0 0 375 374.999991" height="500" preserveAspectRatio="xMidYMid meet" version="1.0"><defs><clipPath id="1adc4cd746"><path d="M 210 95 L 350.214844 95 L 350.214844 246 L 210 246 Z M 210 95 " clip-rule="nonzero"/></clipPath></defs><path fill="#231f20" d="M 102.050781 129.75 C 101.671875 129.75 101.296875 129.714844 100.921875 129.640625 C 100.550781 129.566406 100.191406 129.457031 99.839844 129.3125 C 99.492188 129.167969 99.15625 128.988281 98.84375 128.777344 C 98.527344 128.570312 98.238281 128.328125 97.96875 128.0625 C 97.699219 127.792969 97.460938 127.5 97.25 127.1875 C 97.039062 126.871094 96.863281 126.539062 96.71875 126.1875 C 96.574219 125.839844 96.464844 125.476562 96.390625 125.105469 C 96.316406 124.734375 96.277344 124.359375 96.277344 123.980469 L 96.277344 100.894531 C 96.277344 100.335938 96.304688 99.777344 96.359375 99.21875 C 96.414062 98.664062 96.492188 98.109375 96.601562 97.558594 C 96.710938 97.011719 96.84375 96.46875 97.003906 95.929688 C 97.164062 95.394531 97.351562 94.867188 97.5625 94.347656 C 97.773438 93.832031 98.011719 93.324219 98.269531 92.828125 C 98.53125 92.332031 98.816406 91.851562 99.125 91.382812 C 99.429688 90.914062 99.761719 90.464844 100.113281 90.027344 C 100.460938 89.589844 100.835938 89.171875 101.226562 88.773438 C 101.617188 88.375 102.027344 87.992188 102.457031 87.632812 C 102.886719 87.273438 103.332031 86.933594 103.792969 86.617188 C 104.253906 86.300781 104.730469 86.007812 105.21875 85.738281 C 105.710938 85.464844 106.210938 85.21875 106.726562 84.996094 C 107.242188 84.773438 107.765625 84.578125 108.296875 84.40625 C 108.828125 84.234375 109.371094 84.089844 109.917969 83.972656 C 110.464844 83.855469 111.015625 83.761719 111.570312 83.695312 C 112.128906 83.628906 112.6875 83.59375 113.246094 83.582031 C 112.855469 83.179688 112.480469 82.765625 112.132812 82.328125 C 111.78125 81.890625 111.449219 81.441406 111.144531 80.972656 C 110.835938 80.503906 110.550781 80.023438 110.289062 79.527344 C 110.03125 79.03125 109.792969 78.527344 109.582031 78.007812 C 109.371094 77.488281 109.183594 76.960938 109.023438 76.425781 C 108.863281 75.890625 108.730469 75.347656 108.621094 74.796875 C 108.511719 74.246094 108.433594 73.695312 108.378906 73.136719 C 108.324219 72.578125 108.296875 72.023438 108.296875 71.460938 C 108.296875 70.902344 108.324219 70.34375 108.378906 69.785156 C 108.433594 69.230469 108.511719 68.675781 108.621094 68.125 C 108.730469 67.578125 108.863281 67.035156 109.023438 66.496094 C 109.183594 65.960938 109.371094 65.433594 109.582031 64.917969 C 109.792969 64.398438 110.027344 63.890625 110.289062 63.394531 C 110.550781 62.898438 110.835938 62.417969 111.144531 61.949219 C 111.449219 61.484375 111.78125 61.03125 112.132812 60.59375 C 112.480469 60.160156 112.855469 59.742188 113.246094 59.34375 L 129.75 43.183594 C 131.410156 41.582031 133.308594 40.351562 135.441406 39.484375 C 137.578125 38.613281 139.796875 38.175781 142.101562 38.160156 C 144.3125 38.128906 146.449219 38.515625 148.507812 39.324219 C 150.566406 40.132812 152.394531 41.304688 153.992188 42.835938 C 154.003906 42.277344 154.039062 41.71875 154.105469 41.164062 C 154.171875 40.605469 154.261719 40.054688 154.382812 39.507812 C 154.5 38.960938 154.644531 38.421875 154.816406 37.886719 C 154.988281 37.355469 155.183594 36.832031 155.40625 36.316406 C 155.628906 35.800781 155.875 35.300781 156.144531 34.8125 C 156.417969 34.320312 156.710938 33.84375 157.027344 33.382812 C 157.34375 32.921875 157.683594 32.476562 158.042969 32.046875 C 158.402344 31.617188 158.78125 31.207031 159.183594 30.816406 C 159.582031 30.425781 160 30.054688 160.4375 29.703125 C 160.871094 29.351562 161.324219 29.019531 161.792969 28.714844 C 162.261719 28.40625 162.742188 28.121094 163.238281 27.859375 C 163.734375 27.601562 164.238281 27.363281 164.757812 27.152344 C 165.277344 26.941406 165.804688 26.753906 166.339844 26.59375 C 166.875 26.433594 167.417969 26.300781 167.96875 26.191406 C 168.519531 26.085938 169.070312 26.003906 169.628906 25.949219 C 170.1875 25.894531 170.746094 25.867188 171.304688 25.867188 L 194.390625 25.867188 C 194.949219 25.867188 195.507812 25.894531 196.066406 25.949219 C 196.621094 26.003906 197.175781 26.085938 197.726562 26.191406 C 198.273438 26.300781 198.816406 26.433594 199.355469 26.59375 C 199.890625 26.753906 200.417969 26.941406 200.9375 27.152344 C 201.453125 27.363281 201.960938 27.601562 202.457031 27.859375 C 202.953125 28.121094 203.433594 28.40625 203.902344 28.714844 C 204.371094 29.019531 204.820312 29.351562 205.257812 29.703125 C 205.695312 30.054688 206.113281 30.425781 206.511719 30.816406 C 206.910156 31.207031 207.292969 31.617188 207.652344 32.046875 C 208.011719 32.476562 208.351562 32.921875 208.667969 33.382812 C 208.984375 33.84375 209.277344 34.320312 209.546875 34.8125 C 209.820312 35.300781 210.066406 35.800781 210.289062 36.316406 C 210.507812 36.832031 210.707031 37.355469 210.878906 37.886719 C 211.046875 38.421875 211.195312 38.960938 211.3125 39.507812 C 211.429688 40.054688 211.523438 40.605469 211.589844 41.164062 C 211.652344 41.71875 211.691406 42.277344 211.703125 42.835938 C 213.304688 41.308594 215.132812 40.128906 217.1875 39.300781 C 219.242188 38.472656 221.378906 38.054688 223.59375 38.046875 C 225.910156 38.039062 228.140625 38.484375 230.285156 39.375 C 232.425781 40.265625 234.3125 41.535156 235.941406 43.183594 L 252.101562 59.34375 C 252.503906 59.742188 252.886719 60.164062 253.25 60.601562 C 253.609375 61.039062 253.949219 61.496094 254.265625 61.96875 C 254.582031 62.441406 254.875 62.925781 255.140625 63.425781 C 255.410156 63.929688 255.652344 64.441406 255.871094 64.964844 C 256.089844 65.492188 256.28125 66.027344 256.445312 66.570312 C 256.613281 67.113281 256.75 67.664062 256.859375 68.222656 C 256.972656 68.777344 257.054688 69.339844 257.109375 69.90625 C 257.167969 70.472656 257.195312 71.039062 257.195312 71.605469 C 257.195312 72.175781 257.167969 72.742188 257.109375 73.308594 C 257.054688 73.871094 256.972656 74.433594 256.859375 74.992188 C 256.75 75.546875 256.613281 76.097656 256.445312 76.644531 C 256.28125 77.1875 256.089844 77.71875 255.871094 78.246094 C 255.652344 78.769531 255.410156 79.285156 255.140625 79.785156 C 254.875 80.285156 254.582031 80.773438 254.265625 81.242188 C 253.949219 81.714844 253.609375 82.171875 253.25 82.609375 C 252.886719 83.046875 252.503906 83.46875 252.101562 83.871094 L 242.636719 93.449219 C 242.074219 93.820312 241.464844 94.082031 240.808594 94.238281 C 240.152344 94.394531 239.492188 94.433594 238.820312 94.355469 C 238.152344 94.28125 237.515625 94.09375 236.914062 93.792969 C 236.308594 93.492188 235.773438 93.101562 235.308594 92.613281 C 234.84375 92.128906 234.472656 91.574219 234.199219 90.960938 C 233.925781 90.34375 233.765625 89.699219 233.71875 89.027344 C 233.671875 88.355469 233.738281 87.695312 233.921875 87.046875 C 234.105469 86.398438 234.394531 85.800781 234.789062 85.253906 L 244.3125 75.675781 C 244.578125 75.40625 244.816406 75.117188 245.023438 74.800781 C 245.234375 74.488281 245.410156 74.15625 245.554688 73.804688 C 245.699219 73.457031 245.804688 73.097656 245.878906 72.726562 C 245.953125 72.355469 245.988281 71.984375 245.988281 71.605469 C 245.988281 71.226562 245.953125 70.855469 245.878906 70.484375 C 245.804688 70.113281 245.699219 69.753906 245.554688 69.40625 C 245.410156 69.054688 245.234375 68.726562 245.023438 68.410156 C 244.816406 68.097656 244.578125 67.804688 244.3125 67.539062 L 227.746094 51.261719 C 227.203125 50.722656 226.574219 50.308594 225.867188 50.015625 C 225.15625 49.726562 224.417969 49.585938 223.648438 49.589844 C 222.898438 49.585938 222.171875 49.722656 221.472656 50 C 220.773438 50.28125 220.152344 50.683594 219.609375 51.203125 L 210.03125 60.785156 C 209.625 61.183594 209.167969 61.519531 208.664062 61.785156 C 208.160156 62.050781 207.628906 62.234375 207.066406 62.34375 C 206.507812 62.453125 205.945312 62.476562 205.378906 62.417969 C 204.8125 62.359375 204.265625 62.21875 203.738281 61.996094 C 203.210938 61.78125 202.726562 61.492188 202.285156 61.132812 C 201.84375 60.773438 201.464844 60.355469 201.144531 59.882812 C 200.828125 59.410156 200.585938 58.902344 200.417969 58.359375 C 200.25 57.8125 200.164062 57.257812 200.160156 56.6875 L 200.160156 43.183594 C 200.160156 42.804688 200.125 42.429688 200.050781 42.054688 C 199.976562 41.683594 199.867188 41.324219 199.722656 40.972656 C 199.578125 40.625 199.398438 40.292969 199.1875 39.976562 C 198.976562 39.660156 198.738281 39.371094 198.472656 39.101562 C 198.203125 38.832031 197.910156 38.59375 197.597656 38.382812 C 197.28125 38.171875 196.949219 37.996094 196.597656 37.851562 C 196.25 37.707031 195.886719 37.597656 195.515625 37.523438 C 195.144531 37.449219 194.769531 37.410156 194.390625 37.410156 L 171.304688 37.410156 C 170.925781 37.410156 170.550781 37.449219 170.179688 37.523438 C 169.808594 37.597656 169.445312 37.707031 169.097656 37.851562 C 168.746094 37.996094 168.414062 38.171875 168.097656 38.382812 C 167.785156 38.59375 167.492188 38.832031 167.222656 39.101562 C 166.957031 39.371094 166.714844 39.660156 166.507812 39.976562 C 166.296875 40.292969 166.117188 40.625 165.972656 40.972656 C 165.828125 41.324219 165.71875 41.683594 165.644531 42.054688 C 165.570312 42.429688 165.535156 42.804688 165.535156 43.183594 L 165.535156 56.6875 C 165.53125 57.257812 165.445312 57.8125 165.277344 58.359375 C 165.109375 58.902344 164.867188 59.410156 164.546875 59.882812 C 164.230469 60.355469 163.851562 60.773438 163.40625 61.132812 C 162.964844 61.492188 162.480469 61.78125 161.957031 61.996094 C 161.429688 62.21875 160.882812 62.359375 160.316406 62.417969 C 159.75 62.476562 159.1875 62.453125 158.625 62.34375 C 158.066406 62.234375 157.535156 62.050781 157.03125 61.785156 C 156.527344 61.519531 156.070312 61.183594 155.664062 60.785156 L 146.085938 51.261719 C 145.546875 50.730469 144.929688 50.316406 144.230469 50.027344 C 143.53125 49.738281 142.800781 49.589844 142.042969 49.589844 C 141.277344 49.585938 140.539062 49.726562 139.828125 50.015625 C 139.117188 50.308594 138.492188 50.722656 137.945312 51.261719 L 121.671875 67.539062 C 121.132812 68.082031 120.714844 68.710938 120.425781 69.417969 C 120.136719 70.128906 119.992188 70.867188 120 71.636719 C 119.992188 72.386719 120.132812 73.113281 120.410156 73.8125 C 120.691406 74.511719 121.089844 75.132812 121.613281 75.675781 L 131.195312 85.253906 C 131.59375 85.660156 131.929688 86.117188 132.191406 86.621094 C 132.457031 87.125 132.644531 87.65625 132.753906 88.214844 C 132.859375 88.777344 132.886719 89.339844 132.828125 89.90625 C 132.765625 90.472656 132.628906 91.019531 132.40625 91.546875 C 132.191406 92.074219 131.902344 92.558594 131.542969 93 C 131.183594 93.441406 130.765625 93.820312 130.292969 94.136719 C 129.820312 94.457031 129.3125 94.699219 128.769531 94.867188 C 128.222656 95.035156 127.667969 95.121094 127.097656 95.125 L 113.59375 95.125 C 113.214844 95.125 112.835938 95.160156 112.464844 95.234375 C 112.09375 95.308594 111.734375 95.417969 111.382812 95.5625 C 111.035156 95.707031 110.699219 95.886719 110.386719 96.097656 C 110.070312 96.308594 109.777344 96.546875 109.511719 96.8125 C 109.242188 97.082031 109.003906 97.375 108.792969 97.6875 C 108.582031 98.003906 108.40625 98.335938 108.261719 98.6875 C 108.113281 99.035156 108.003906 99.398438 107.929688 99.769531 C 107.859375 100.140625 107.820312 100.515625 107.820312 100.894531 L 107.820312 123.980469 C 107.820312 124.359375 107.785156 124.734375 107.710938 125.105469 C 107.636719 125.476562 107.527344 125.839844 107.382812 126.1875 C 107.238281 126.539062 107.058594 126.871094 106.847656 127.1875 C 106.636719 127.5 106.398438 127.792969 106.128906 128.0625 C 105.863281 128.328125 105.570312 128.570312 105.253906 128.777344 C 104.941406 128.988281 104.609375 129.167969 104.257812 129.3125 C 103.90625 129.457031 103.546875 129.566406 103.175781 129.640625 C 102.804688 129.714844 102.429688 129.75 102.050781 129.75 Z M 102.050781 129.75 " fill-opacity="1" fill-rule="nonzero"/><path fill="#231f20" d="M 162.878906 129.75 C 161.859375 129.75 160.90625 129.5 160.023438 128.996094 C 159.136719 128.492188 158.433594 127.800781 157.914062 126.921875 C 157.28125 125.832031 156.722656 124.703125 156.238281 123.539062 C 155.75 122.375 155.34375 121.183594 155.015625 119.964844 C 154.6875 118.746094 154.4375 117.511719 154.269531 116.261719 C 154.101562 115.011719 154.019531 113.753906 154.015625 112.492188 C 154.011719 111.230469 154.09375 109.976562 154.253906 108.722656 C 154.417969 107.472656 154.660156 106.238281 154.984375 105.019531 C 155.308594 103.800781 155.714844 102.605469 156.195312 101.441406 C 156.675781 100.273438 157.230469 99.144531 157.859375 98.050781 C 158.488281 96.957031 159.1875 95.90625 159.953125 94.90625 C 160.71875 93.902344 161.546875 92.957031 162.4375 92.0625 C 163.328125 91.167969 164.277344 90.335938 165.277344 89.566406 C 166.277344 88.796875 167.320312 88.097656 168.414062 87.464844 C 169.503906 86.832031 170.632812 86.273438 171.800781 85.789062 C 172.964844 85.304688 174.15625 84.898438 175.375 84.574219 C 176.59375 84.246094 177.828125 83.996094 179.078125 83.832031 C 180.328125 83.664062 181.585938 83.582031 182.847656 83.582031 C 184.445312 83.582031 186.027344 83.710938 187.601562 83.976562 C 189.175781 84.238281 190.71875 84.628906 192.230469 85.148438 C 193.738281 85.664062 195.195312 86.304688 196.597656 87.066406 C 198.003906 87.824219 199.332031 88.695312 200.59375 89.675781 C 201.851562 90.660156 203.019531 91.738281 204.101562 92.914062 C 205.179688 94.085938 206.15625 95.34375 207.027344 96.679688 C 207.898438 98.019531 208.65625 99.417969 209.292969 100.882812 C 209.933594 102.34375 210.449219 103.847656 210.839844 105.398438 C 210.929688 105.765625 210.984375 106.136719 211.003906 106.515625 C 211.023438 106.894531 211.007812 107.269531 210.949219 107.644531 C 210.894531 108.019531 210.804688 108.386719 210.675781 108.742188 C 210.550781 109.101562 210.390625 109.441406 210.195312 109.765625 C 210 110.09375 209.777344 110.394531 209.523438 110.675781 C 209.269531 110.957031 208.988281 111.210938 208.6875 111.4375 C 208.382812 111.664062 208.058594 111.859375 207.71875 112.019531 C 207.375 112.183594 207.019531 112.3125 206.652344 112.402344 C 206.285156 112.496094 205.914062 112.550781 205.535156 112.570312 C 205.15625 112.589844 204.777344 112.574219 204.402344 112.519531 C 204.027344 112.464844 203.664062 112.375 203.304688 112.246094 C 202.949219 112.121094 202.609375 111.960938 202.28125 111.765625 C 201.957031 111.570312 201.652344 111.347656 201.371094 111.09375 C 201.089844 110.839844 200.835938 110.5625 200.609375 110.257812 C 200.382812 109.953125 200.1875 109.628906 200.027344 109.289062 C 199.863281 108.945312 199.734375 108.59375 199.640625 108.226562 C 199.492188 107.625 199.3125 107.035156 199.097656 106.453125 C 198.886719 105.871094 198.644531 105.304688 198.371094 104.746094 C 198.097656 104.191406 197.792969 103.652344 197.460938 103.132812 C 197.132812 102.609375 196.773438 102.105469 196.386719 101.621094 C 196.003906 101.136719 195.59375 100.675781 195.15625 100.234375 C 194.722656 99.792969 194.265625 99.378906 193.785156 98.988281 C 193.304688 98.597656 192.808594 98.230469 192.289062 97.894531 C 191.769531 97.554688 191.234375 97.246094 190.683594 96.964844 C 190.132812 96.6875 189.566406 96.4375 188.988281 96.214844 C 188.410156 95.996094 187.820312 95.808594 187.222656 95.652344 C 186.625 95.496094 186.019531 95.371094 185.40625 95.277344 C 184.792969 95.1875 184.179688 95.128906 183.5625 95.101562 C 182.941406 95.078125 182.324219 95.085938 181.707031 95.125 C 181.089844 95.164062 180.476562 95.238281 179.867188 95.34375 C 179.257812 95.449219 178.65625 95.589844 178.058594 95.761719 C 177.464844 95.929688 176.882812 96.132812 176.308594 96.367188 C 175.734375 96.601562 175.175781 96.863281 174.632812 97.15625 C 174.085938 97.449219 173.558594 97.773438 173.046875 98.121094 C 172.539062 98.472656 172.046875 98.847656 171.578125 99.25 C 171.109375 99.652344 170.660156 100.078125 170.238281 100.53125 C 169.8125 100.980469 169.414062 101.453125 169.039062 101.945312 C 168.664062 102.4375 168.320312 102.949219 168 103.480469 C 167.683594 104.011719 167.390625 104.554688 167.132812 105.117188 C 166.871094 105.679688 166.640625 106.253906 166.441406 106.839844 C 166.246094 107.425781 166.078125 108.019531 165.941406 108.625 C 165.808594 109.226562 165.707031 109.835938 165.636719 110.453125 C 165.566406 111.066406 165.527344 111.683594 165.527344 112.300781 C 165.523438 112.921875 165.550781 113.539062 165.613281 114.152344 C 165.675781 114.769531 165.773438 115.378906 165.902344 115.984375 C 166.027344 116.589844 166.1875 117.1875 166.378906 117.777344 C 166.574219 118.363281 166.796875 118.941406 167.050781 119.503906 C 167.304688 120.070312 167.585938 120.617188 167.898438 121.152344 C 168.089844 121.480469 168.25 121.824219 168.375 122.183594 C 168.5 122.539062 168.585938 122.910156 168.636719 123.285156 C 168.691406 123.660156 168.703125 124.039062 168.679688 124.417969 C 168.660156 124.796875 168.597656 125.167969 168.503906 125.535156 C 168.40625 125.902344 168.273438 126.257812 168.109375 126.601562 C 167.941406 126.941406 167.742188 127.261719 167.511719 127.566406 C 167.28125 127.867188 167.027344 128.144531 166.742188 128.394531 C 166.457031 128.648438 166.148438 128.867188 165.820312 129.058594 C 164.902344 129.554688 163.921875 129.785156 162.878906 129.75 Z M 162.878906 129.75 " fill-opacity="1" fill-rule="nonzero"/><g clip-path="url(#1adc4cd746)"><path fill="#231f20" d="M 285.054688 245.175781 L 265.320312 245.175781 C 264.289062 245.175781 263.273438 245.078125 262.261719 244.875 C 261.253906 244.675781 260.273438 244.378906 259.324219 243.988281 C 258.375 243.59375 257.472656 243.113281 256.617188 242.542969 C 255.757812 241.972656 254.96875 241.324219 254.238281 240.601562 C 253.511719 239.875 252.859375 239.085938 252.285156 238.230469 C 251.714844 237.375 251.230469 236.476562 250.832031 235.527344 C 250.4375 234.578125 250.136719 233.597656 249.933594 232.589844 C 249.730469 231.582031 249.625 230.566406 249.621094 229.535156 L 249.621094 217.996094 C 249.621094 217.617188 249.65625 217.238281 249.730469 216.867188 C 249.804688 216.496094 249.914062 216.136719 250.058594 215.785156 C 250.207031 215.4375 250.382812 215.101562 250.59375 214.789062 C 250.804688 214.472656 251.042969 214.179688 251.3125 213.914062 C 251.578125 213.644531 251.871094 213.40625 252.1875 213.195312 C 252.5 212.984375 252.832031 212.808594 253.183594 212.664062 C 253.535156 212.515625 253.894531 212.40625 254.265625 212.335938 C 254.636719 212.261719 255.011719 212.222656 255.390625 212.222656 C 255.769531 212.222656 256.144531 212.261719 256.519531 212.335938 C 256.890625 212.40625 257.25 212.515625 257.601562 212.664062 C 257.949219 212.808594 258.285156 212.984375 258.597656 213.195312 C 258.914062 213.40625 259.207031 213.644531 259.472656 213.914062 C 259.742188 214.179688 259.980469 214.472656 260.191406 214.789062 C 260.402344 215.101562 260.578125 215.4375 260.722656 215.785156 C 260.871094 216.136719 260.980469 216.496094 261.050781 216.867188 C 261.125 217.238281 261.164062 217.617188 261.164062 217.996094 L 261.164062 229.535156 C 261.164062 229.808594 261.191406 230.078125 261.242188 230.34375 C 261.296875 230.609375 261.375 230.867188 261.480469 231.117188 C 261.585938 231.367188 261.714844 231.605469 261.867188 231.832031 C 262.019531 232.054688 262.191406 232.265625 262.382812 232.453125 C 262.578125 232.644531 262.789062 232.816406 263.015625 232.964844 C 263.242188 233.113281 263.480469 233.238281 263.734375 233.339844 C 263.984375 233.441406 264.246094 233.515625 264.511719 233.566406 C 264.777344 233.617188 265.046875 233.636719 265.320312 233.632812 L 285.054688 233.632812 C 285.328125 233.636719 285.597656 233.617188 285.863281 233.566406 C 286.132812 233.515625 286.390625 233.441406 286.640625 233.339844 C 286.894531 233.238281 287.132812 233.113281 287.359375 232.964844 C 287.589844 232.816406 287.796875 232.644531 287.992188 232.453125 C 288.183594 232.265625 288.355469 232.054688 288.507812 231.832031 C 288.660156 231.605469 288.789062 231.367188 288.894531 231.117188 C 289 230.867188 289.078125 230.609375 289.132812 230.34375 C 289.183594 230.078125 289.210938 229.808594 289.210938 229.535156 L 289.210938 217.996094 C 289.214844 217.425781 289.300781 216.867188 289.46875 216.324219 C 289.636719 215.777344 289.878906 215.269531 290.195312 214.796875 C 290.515625 214.324219 290.894531 213.910156 291.335938 213.550781 C 291.777344 213.191406 292.261719 212.902344 292.789062 212.683594 C 293.316406 212.464844 293.863281 212.324219 294.429688 212.265625 C 294.996094 212.207031 295.558594 212.230469 296.117188 212.335938 C 296.679688 212.445312 297.210938 212.632812 297.714844 212.898438 C 298.21875 213.164062 298.675781 213.496094 299.082031 213.898438 L 307.277344 222.09375 C 307.664062 222.464844 308.105469 222.753906 308.605469 222.953125 C 309.105469 223.15625 309.625 223.257812 310.160156 223.257812 C 310.699219 223.257812 311.21875 223.15625 311.71875 222.953125 C 312.214844 222.753906 312.660156 222.464844 313.046875 222.09375 L 327.128906 208.011719 C 327.496094 207.621094 327.777344 207.175781 327.976562 206.675781 C 328.175781 206.179688 328.273438 205.660156 328.273438 205.125 C 328.273438 204.589844 328.175781 204.070312 327.976562 203.574219 C 327.777344 203.074219 327.496094 202.628906 327.128906 202.238281 L 318.933594 194.101562 C 318.535156 193.695312 318.199219 193.242188 317.933594 192.734375 C 317.667969 192.230469 317.484375 191.699219 317.375 191.140625 C 317.265625 190.578125 317.242188 190.015625 317.300781 189.449219 C 317.359375 188.882812 317.5 188.335938 317.722656 187.8125 C 317.9375 187.285156 318.226562 186.800781 318.585938 186.359375 C 318.945312 185.917969 319.363281 185.535156 319.835938 185.21875 C 320.308594 184.898438 320.816406 184.65625 321.359375 184.488281 C 321.90625 184.320312 322.460938 184.234375 323.03125 184.230469 L 334.574219 184.230469 C 334.84375 184.234375 335.113281 184.207031 335.378906 184.152344 C 335.648438 184.097656 335.90625 184.019531 336.15625 183.914062 C 336.40625 183.808594 336.644531 183.683594 336.867188 183.53125 C 337.09375 183.378906 337.300781 183.207031 337.492188 183.011719 C 337.683594 182.820312 337.851562 182.609375 338 182.382812 C 338.148438 182.15625 338.273438 181.914062 338.375 181.664062 C 338.476562 181.410156 338.554688 181.152344 338.601562 180.882812 C 338.652344 180.617188 338.675781 180.347656 338.671875 180.078125 L 338.671875 160.28125 C 338.675781 160.011719 338.652344 159.742188 338.601562 159.472656 C 338.554688 159.207031 338.476562 158.949219 338.375 158.695312 C 338.273438 158.445312 338.148438 158.203125 338 157.976562 C 337.851562 157.75 337.683594 157.539062 337.492188 157.347656 C 337.300781 157.152344 337.09375 156.980469 336.867188 156.828125 C 336.644531 156.675781 336.40625 156.546875 336.15625 156.445312 C 335.90625 156.339844 335.648438 156.261719 335.378906 156.207031 C 335.113281 156.152344 334.84375 156.125 334.574219 156.125 L 323.03125 156.125 C 322.460938 156.125 321.90625 156.039062 321.359375 155.871094 C 320.816406 155.703125 320.308594 155.460938 319.835938 155.140625 C 319.363281 154.824219 318.945312 154.441406 318.585938 154 C 318.226562 153.558594 317.9375 153.074219 317.722656 152.546875 C 317.5 152.023438 317.359375 151.476562 317.300781 150.910156 C 317.242188 150.34375 317.265625 149.777344 317.375 149.21875 C 317.484375 148.660156 317.667969 148.128906 317.933594 147.621094 C 318.199219 147.117188 318.535156 146.664062 318.933594 146.257812 L 327.128906 138.0625 C 327.503906 137.675781 327.789062 137.230469 327.992188 136.734375 C 328.195312 136.234375 328.292969 135.714844 328.292969 135.175781 C 328.292969 134.636719 328.195312 134.121094 327.992188 133.621094 C 327.789062 133.121094 327.503906 132.679688 327.128906 132.289062 L 313.046875 118.210938 C 312.65625 117.839844 312.210938 117.558594 311.714844 117.363281 C 311.214844 117.164062 310.699219 117.066406 310.160156 117.066406 C 309.625 117.066406 309.109375 117.164062 308.609375 117.363281 C 308.109375 117.558594 307.667969 117.839844 307.277344 118.210938 L 299.136719 126.402344 C 298.734375 126.804688 298.277344 127.136719 297.773438 127.402344 C 297.269531 127.667969 296.738281 127.855469 296.175781 127.964844 C 295.617188 128.070312 295.054688 128.09375 294.488281 128.035156 C 293.917969 127.976562 293.375 127.835938 292.847656 127.617188 C 292.320312 127.398438 291.835938 127.113281 291.394531 126.75 C 290.953125 126.390625 290.574219 125.976562 290.253906 125.503906 C 289.9375 125.03125 289.695312 124.523438 289.527344 123.976562 C 289.359375 123.433594 289.273438 122.875 289.269531 122.304688 L 289.269531 110.765625 C 289.269531 110.492188 289.242188 110.222656 289.191406 109.957031 C 289.136719 109.691406 289.058594 109.433594 288.953125 109.183594 C 288.847656 108.933594 288.71875 108.695312 288.566406 108.46875 C 288.414062 108.246094 288.242188 108.035156 288.050781 107.847656 C 287.855469 107.65625 287.644531 107.484375 287.417969 107.335938 C 287.191406 107.1875 286.953125 107.0625 286.699219 106.960938 C 286.449219 106.859375 286.1875 106.785156 285.921875 106.734375 C 285.65625 106.6875 285.386719 106.664062 285.113281 106.667969 L 265.320312 106.667969 C 265.046875 106.664062 264.777344 106.6875 264.511719 106.734375 C 264.246094 106.785156 263.984375 106.859375 263.734375 106.960938 C 263.480469 107.0625 263.242188 107.1875 263.015625 107.335938 C 262.789062 107.484375 262.578125 107.65625 262.382812 107.847656 C 262.191406 108.035156 262.019531 108.246094 261.867188 108.46875 C 261.714844 108.695312 261.585938 108.933594 261.480469 109.183594 C 261.375 109.433594 261.296875 109.691406 261.242188 109.957031 C 261.191406 110.222656 261.164062 110.492188 261.164062 110.765625 L 261.164062 122.304688 C 261.160156 122.875 261.074219 123.433594 260.90625 123.976562 C 260.738281 124.523438 260.496094 125.03125 260.179688 125.503906 C 259.859375 125.976562 259.480469 126.390625 259.039062 126.75 C 258.597656 127.113281 258.113281 127.398438 257.585938 127.617188 C 257.058594 127.835938 256.511719 127.976562 255.945312 128.035156 C 255.378906 128.09375 254.816406 128.070312 254.257812 127.964844 C 253.695312 127.855469 253.164062 127.667969 252.660156 127.402344 C 252.15625 127.136719 251.699219 126.804688 251.292969 126.402344 L 243.097656 118.210938 C 242.710938 117.835938 242.269531 117.546875 241.769531 117.347656 C 241.269531 117.144531 240.753906 117.042969 240.214844 117.042969 C 239.675781 117.042969 239.15625 117.144531 238.65625 117.347656 C 238.160156 117.546875 237.714844 117.835938 237.328125 118.210938 L 223.246094 132.289062 C 222.878906 132.679688 222.597656 133.125 222.398438 133.625 C 222.203125 134.125 222.101562 134.640625 222.101562 135.175781 C 222.101562 135.710938 222.203125 136.230469 222.398438 136.730469 C 222.597656 137.226562 222.878906 137.671875 223.246094 138.0625 L 231.441406 146.199219 C 231.710938 146.46875 231.953125 146.761719 232.167969 147.078125 C 232.378906 147.394531 232.558594 147.730469 232.707031 148.082031 C 232.855469 148.433594 232.964844 148.796875 233.042969 149.171875 C 233.117188 149.546875 233.15625 149.921875 233.15625 150.304688 C 233.15625 150.6875 233.121094 151.066406 233.046875 151.441406 C 232.976562 151.8125 232.867188 152.179688 232.722656 152.53125 C 232.578125 152.882812 232.398438 153.21875 232.1875 153.539062 C 231.976562 153.855469 231.738281 154.152344 231.46875 154.421875 C 231.199219 154.691406 230.90625 154.933594 230.589844 155.148438 C 230.273438 155.359375 229.9375 155.539062 229.585938 155.6875 C 229.234375 155.835938 228.871094 155.945312 228.496094 156.023438 C 228.125 156.097656 227.746094 156.136719 227.363281 156.140625 C 226.980469 156.140625 226.605469 156.105469 226.230469 156.03125 C 225.855469 155.957031 225.492188 155.851562 225.136719 155.707031 C 224.785156 155.558594 224.449219 155.382812 224.128906 155.171875 C 223.8125 154.960938 223.515625 154.722656 223.246094 154.453125 L 215.050781 146.257812 C 214.328125 145.527344 213.683594 144.734375 213.117188 143.878906 C 212.550781 143.019531 212.070312 142.117188 211.679688 141.167969 C 211.289062 140.214844 210.992188 139.238281 210.792969 138.230469 C 210.59375 137.222656 210.496094 136.203125 210.496094 135.175781 C 210.496094 134.148438 210.59375 133.132812 210.792969 132.125 C 210.992188 131.117188 211.289062 130.136719 211.679688 129.1875 C 212.070312 128.234375 212.550781 127.332031 213.117188 126.476562 C 213.683594 125.621094 214.328125 124.824219 215.050781 124.097656 L 229.015625 110.070312 C 229.683594 109.40625 230.40625 108.808594 231.183594 108.277344 C 231.957031 107.742188 232.773438 107.28125 233.632812 106.894531 C 234.492188 106.507812 235.378906 106.203125 236.292969 105.976562 C 237.203125 105.75 238.132812 105.605469 239.070312 105.542969 C 240.007812 105.484375 240.945312 105.507812 241.882812 105.617188 C 242.816406 105.722656 243.734375 105.914062 244.636719 106.1875 C 245.535156 106.460938 246.40625 106.8125 247.242188 107.242188 C 248.082031 107.671875 248.875 108.171875 249.621094 108.742188 C 249.746094 107.804688 249.957031 106.882812 250.25 105.980469 C 250.542969 105.078125 250.914062 104.207031 251.363281 103.371094 C 251.8125 102.535156 252.335938 101.75 252.929688 101.007812 C 253.519531 100.265625 254.175781 99.585938 254.894531 98.964844 C 255.609375 98.34375 256.375 97.789062 257.195312 97.308594 C 258.011719 96.824219 258.863281 96.417969 259.753906 96.089844 C 260.644531 95.761719 261.558594 95.519531 262.492188 95.355469 C 263.429688 95.191406 264.371094 95.117188 265.320312 95.125 L 285.054688 95.125 C 286 95.121094 286.9375 95.207031 287.867188 95.375 C 288.796875 95.539062 289.703125 95.789062 290.585938 96.121094 C 291.46875 96.453125 292.316406 96.859375 293.128906 97.34375 C 293.9375 97.828125 294.699219 98.382812 295.410156 99.003906 C 296.121094 99.625 296.769531 100.304688 297.359375 101.042969 C 297.945312 101.78125 298.464844 102.566406 298.910156 103.398438 C 299.355469 104.230469 299.726562 105.09375 300.015625 105.992188 C 300.304688 106.890625 300.515625 107.808594 300.640625 108.742188 C 301.390625 108.175781 302.183594 107.683594 303.019531 107.257812 C 303.859375 106.832031 304.730469 106.484375 305.628906 106.214844 C 306.527344 105.945312 307.445312 105.757812 308.378906 105.648438 C 309.3125 105.542969 310.25 105.519531 311.1875 105.582031 C 312.125 105.640625 313.050781 105.785156 313.960938 106.011719 C 314.875 106.234375 315.761719 106.539062 316.617188 106.921875 C 317.476562 107.304688 318.292969 107.761719 319.070312 108.292969 C 319.847656 108.820312 320.570312 109.414062 321.242188 110.070312 L 335.265625 123.980469 C 335.925781 124.648438 336.523438 125.371094 337.054688 126.148438 C 337.585938 126.925781 338.042969 127.742188 338.429688 128.601562 C 338.8125 129.457031 339.117188 130.34375 339.34375 131.257812 C 339.570312 132.171875 339.714844 133.097656 339.777344 134.035156 C 339.835938 134.972656 339.8125 135.910156 339.707031 136.84375 C 339.597656 137.777344 339.410156 138.695312 339.136719 139.597656 C 338.867188 140.496094 338.515625 141.367188 338.089844 142.203125 C 337.660156 143.042969 337.164062 143.835938 336.59375 144.582031 C 337.535156 144.710938 338.457031 144.917969 339.359375 145.210938 C 340.261719 145.503906 341.128906 145.875 341.964844 146.324219 C 342.800781 146.777344 343.589844 147.296875 344.332031 147.890625 C 345.070312 148.484375 345.753906 149.140625 346.375 149.855469 C 346.996094 150.574219 347.546875 151.339844 348.03125 152.15625 C 348.515625 152.972656 348.917969 153.828125 349.246094 154.71875 C 349.574219 155.609375 349.820312 156.519531 349.984375 157.457031 C 350.144531 158.390625 350.222656 159.332031 350.214844 160.28125 L 350.214844 180.019531 C 350.214844 180.964844 350.132812 181.898438 349.964844 182.828125 C 349.796875 183.757812 349.546875 184.664062 349.214844 185.550781 C 348.886719 186.433594 348.476562 187.28125 347.992188 188.089844 C 347.511719 188.902344 346.957031 189.664062 346.335938 190.371094 C 345.714844 191.082031 345.035156 191.734375 344.296875 192.320312 C 343.558594 192.910156 342.773438 193.425781 341.941406 193.875 C 341.109375 194.320312 340.242188 194.6875 339.34375 194.980469 C 338.445312 195.269531 337.53125 195.476562 336.59375 195.601562 C 337.167969 196.355469 337.671875 197.152344 338.101562 197.992188 C 338.535156 198.835938 338.886719 199.710938 339.160156 200.613281 C 339.433594 201.519531 339.625 202.445312 339.734375 203.382812 C 339.84375 204.324219 339.867188 205.265625 339.808594 206.210938 C 339.746094 207.152344 339.601562 208.085938 339.375 209.003906 C 339.148438 209.921875 338.839844 210.8125 338.453125 211.675781 C 338.0625 212.539062 337.601562 213.359375 337.066406 214.140625 C 336.53125 214.921875 335.933594 215.648438 335.265625 216.320312 L 321.359375 230.230469 C 320.6875 230.890625 319.964844 231.484375 319.191406 232.015625 C 318.414062 232.546875 317.597656 233.007812 316.738281 233.390625 C 315.878906 233.777344 314.996094 234.082031 314.082031 234.308594 C 313.167969 234.535156 312.242188 234.675781 311.304688 234.738281 C 310.367188 234.796875 309.429688 234.773438 308.496094 234.667969 C 307.558594 234.5625 306.640625 234.371094 305.742188 234.101562 C 304.839844 233.828125 303.972656 233.480469 303.132812 233.050781 C 302.296875 232.625 301.503906 232.125 300.753906 231.558594 C 300.628906 232.496094 300.417969 233.417969 300.128906 234.320312 C 299.835938 235.222656 299.460938 236.09375 299.011719 236.929688 C 298.5625 237.765625 298.039062 238.550781 297.449219 239.292969 C 296.855469 240.035156 296.199219 240.714844 295.480469 241.335938 C 294.765625 241.957031 294 242.511719 293.183594 242.992188 C 292.363281 243.476562 291.511719 243.882812 290.621094 244.210938 C 289.730469 244.539062 288.816406 244.785156 287.882812 244.945312 C 286.949219 245.109375 286.003906 245.183594 285.054688 245.175781 Z M 285.054688 245.175781 " fill-opacity="1" fill-rule="nonzero"/></g><path fill="#231f20" d="M 275.1875 195.71875 C 274.351562 195.71875 273.515625 195.675781 272.683594 195.59375 C 271.847656 195.511719 271.019531 195.390625 270.199219 195.226562 C 269.378906 195.0625 268.566406 194.859375 267.765625 194.617188 C 266.964844 194.375 266.175781 194.089844 265.402344 193.769531 C 264.628906 193.449219 263.875 193.09375 263.136719 192.699219 C 262.398438 192.304688 261.679688 191.875 260.984375 191.410156 C 260.289062 190.941406 259.617188 190.445312 258.96875 189.914062 C 258.320312 189.382812 257.703125 188.820312 257.109375 188.230469 C 256.515625 187.636719 255.957031 187.015625 255.425781 186.371094 C 254.894531 185.722656 254.394531 185.050781 253.929688 184.355469 C 253.464844 183.660156 253.035156 182.941406 252.640625 182.203125 C 252.246094 181.464844 251.886719 180.707031 251.566406 179.933594 C 251.246094 179.160156 250.964844 178.375 250.722656 177.570312 C 250.480469 176.769531 250.277344 175.960938 250.113281 175.136719 C 249.949219 174.316406 249.824219 173.488281 249.742188 172.65625 C 249.660156 171.824219 249.621094 170.988281 249.621094 170.152344 C 249.621094 169.3125 249.660156 168.476562 249.742188 167.644531 C 249.824219 166.8125 249.949219 165.984375 250.113281 165.164062 C 250.277344 164.339844 250.480469 163.53125 250.722656 162.730469 C 250.964844 161.925781 251.246094 161.140625 251.566406 160.367188 C 251.886719 159.59375 252.246094 158.835938 252.640625 158.097656 C 253.035156 157.359375 253.464844 156.640625 253.929688 155.945312 C 254.394531 155.25 254.894531 154.578125 255.425781 153.929688 C 255.957031 153.285156 256.515625 152.664062 257.109375 152.070312 C 257.703125 151.480469 258.320312 150.917969 258.96875 150.386719 C 259.617188 149.855469 260.289062 149.359375 260.984375 148.890625 C 261.679688 148.425781 262.398438 147.996094 263.136719 147.601562 C 263.875 147.207031 264.628906 146.851562 265.402344 146.53125 C 266.175781 146.210938 266.964844 145.925781 267.765625 145.683594 C 268.566406 145.441406 269.378906 145.238281 270.199219 145.074219 C 271.019531 144.910156 271.847656 144.789062 272.683594 144.707031 C 273.515625 144.625 274.351562 144.582031 275.1875 144.582031 C 276.023438 144.582031 276.859375 144.625 277.695312 144.707031 C 278.527344 144.789062 279.355469 144.910156 280.175781 145.074219 C 280.996094 145.238281 281.808594 145.441406 282.609375 145.683594 C 283.410156 145.925781 284.199219 146.210938 284.972656 146.53125 C 285.746094 146.851562 286.5 147.207031 287.238281 147.601562 C 287.976562 147.996094 288.695312 148.425781 289.390625 148.890625 C 290.089844 149.359375 290.761719 149.855469 291.40625 150.386719 C 292.054688 150.917969 292.675781 151.480469 293.265625 152.070312 C 293.859375 152.664062 294.417969 153.285156 294.949219 153.929688 C 295.480469 154.578125 295.980469 155.25 296.445312 155.945312 C 296.910156 156.640625 297.339844 157.359375 297.734375 158.097656 C 298.128906 158.835938 298.488281 159.59375 298.808594 160.367188 C 299.128906 161.140625 299.410156 161.925781 299.652344 162.730469 C 299.898438 163.53125 300.101562 164.339844 300.261719 165.164062 C 300.425781 165.984375 300.550781 166.8125 300.632812 167.644531 C 300.714844 168.476562 300.753906 169.3125 300.753906 170.152344 C 300.753906 170.988281 300.710938 171.820312 300.625 172.65625 C 300.542969 173.488281 300.417969 174.3125 300.253906 175.132812 C 300.089844 175.953125 299.882812 176.765625 299.640625 177.566406 C 299.398438 178.367188 299.113281 179.152344 298.792969 179.925781 C 298.472656 180.699219 298.113281 181.453125 297.71875 182.191406 C 297.324219 182.929688 296.894531 183.644531 296.429688 184.339844 C 295.960938 185.035156 295.464844 185.707031 294.933594 186.355469 C 294.402344 187 293.839844 187.621094 293.25 188.210938 C 292.65625 188.804688 292.039062 189.363281 291.390625 189.894531 C 290.746094 190.425781 290.074219 190.925781 289.378906 191.390625 C 288.683594 191.855469 287.964844 192.285156 287.226562 192.679688 C 286.492188 193.078125 285.734375 193.433594 284.960938 193.753906 C 284.191406 194.078125 283.402344 194.359375 282.601562 194.601562 C 281.800781 194.847656 280.992188 195.050781 280.171875 195.214844 C 279.351562 195.382812 278.523438 195.503906 277.691406 195.589844 C 276.859375 195.671875 276.023438 195.714844 275.1875 195.71875 Z M 275.1875 156.125 C 274.265625 156.125 273.355469 156.214844 272.453125 156.394531 C 271.546875 156.574219 270.671875 156.839844 269.820312 157.195312 C 268.96875 157.546875 268.160156 157.976562 267.394531 158.488281 C 266.628906 159 265.921875 159.582031 265.269531 160.234375 C 264.621094 160.886719 264.039062 161.59375 263.527344 162.359375 C 263.015625 163.125 262.582031 163.933594 262.230469 164.785156 C 261.878906 165.632812 261.613281 166.511719 261.433594 167.414062 C 261.253906 168.316406 261.164062 169.230469 261.164062 170.152344 C 261.164062 171.070312 261.253906 171.984375 261.433594 172.886719 C 261.613281 173.789062 261.878906 174.667969 262.230469 175.515625 C 262.582031 176.367188 263.015625 177.175781 263.527344 177.941406 C 264.039062 178.707031 264.621094 179.414062 265.269531 180.066406 C 265.921875 180.71875 266.628906 181.300781 267.394531 181.8125 C 268.160156 182.324219 268.96875 182.753906 269.820312 183.105469 C 270.671875 183.460938 271.546875 183.726562 272.453125 183.90625 C 273.355469 184.085938 274.265625 184.175781 275.1875 184.175781 C 276.109375 184.175781 277.019531 184.085938 277.921875 183.90625 C 278.828125 183.726562 279.703125 183.460938 280.554688 183.105469 C 281.40625 182.753906 282.214844 182.324219 282.980469 181.8125 C 283.746094 181.300781 284.453125 180.71875 285.105469 180.066406 C 285.753906 179.414062 286.335938 178.707031 286.847656 177.941406 C 287.359375 177.175781 287.792969 176.367188 288.144531 175.515625 C 288.496094 174.667969 288.761719 173.789062 288.941406 172.886719 C 289.121094 171.984375 289.210938 171.070312 289.210938 170.152344 C 289.210938 169.230469 289.121094 168.316406 288.941406 167.414062 C 288.761719 166.511719 288.496094 165.632812 288.144531 164.785156 C 287.792969 163.933594 287.359375 163.125 286.847656 162.359375 C 286.335938 161.59375 285.753906 160.886719 285.105469 160.234375 C 284.453125 159.582031 283.746094 159 282.980469 158.488281 C 282.214844 157.976562 281.40625 157.546875 280.554688 157.195312 C 279.703125 156.839844 278.828125 156.574219 277.921875 156.394531 C 277.019531 156.214844 276.109375 156.125 275.1875 156.125 Z M 275.1875 156.125 " fill-opacity="1" fill-rule="nonzero"/><path fill="#231f20" d="M 102.050781 157.050781 C 101.671875 157.105469 101.289062 157.121094 100.90625 157.101562 C 100.523438 157.082031 100.148438 157.023438 99.777344 156.929688 C 99.40625 156.835938 99.046875 156.707031 98.703125 156.542969 C 98.355469 156.378906 98.03125 156.179688 97.722656 155.949219 C 97.417969 155.722656 97.136719 155.464844 96.878906 155.179688 C 96.621094 154.894531 96.398438 154.589844 96.199219 154.261719 C 96.003906 153.929688 95.84375 153.585938 95.714844 153.226562 C 95.585938 152.863281 95.496094 152.496094 95.441406 152.117188 C 95.386719 151.734375 95.367188 151.355469 95.390625 150.972656 C 95.410156 150.589844 95.464844 150.214844 95.558594 149.84375 C 95.65625 149.472656 95.785156 149.113281 95.949219 148.769531 C 96.113281 148.421875 96.3125 148.097656 96.539062 147.789062 C 96.769531 147.484375 97.027344 147.199219 97.308594 146.945312 C 97.59375 146.6875 97.902344 146.460938 98.230469 146.265625 C 98.558594 146.070312 98.90625 145.910156 99.265625 145.78125 C 99.625 145.652344 99.996094 145.5625 100.375 145.507812 C 107.246094 143.460938 114.253906 142.125 121.394531 141.492188 C 128.539062 140.859375 135.671875 140.949219 142.792969 141.753906 C 143.171875 141.800781 143.542969 141.878906 143.90625 141.996094 C 144.269531 142.113281 144.617188 142.265625 144.949219 142.449219 C 145.285156 142.636719 145.597656 142.851562 145.886719 143.097656 C 146.175781 143.34375 146.441406 143.617188 146.679688 143.917969 C 146.914062 144.214844 147.121094 144.535156 147.292969 144.875 C 147.46875 145.210938 147.609375 145.566406 147.710938 145.933594 C 147.816406 146.300781 147.886719 146.671875 147.917969 147.050781 C 147.949219 147.433594 147.941406 147.8125 147.898438 148.191406 C 147.855469 148.570312 147.773438 148.941406 147.65625 149.304688 C 147.539062 149.664062 147.390625 150.015625 147.203125 150.347656 C 147.019531 150.679688 146.804688 150.992188 146.558594 151.285156 C 146.3125 151.574219 146.039062 151.839844 145.738281 152.074219 C 145.441406 152.3125 145.121094 152.519531 144.785156 152.691406 C 144.445312 152.867188 144.089844 153.007812 143.726562 153.113281 C 143.359375 153.214844 142.984375 153.285156 142.605469 153.316406 C 142.226562 153.347656 141.847656 153.339844 141.46875 153.296875 C 135.128906 152.566406 128.78125 152.484375 122.425781 153.046875 C 116.066406 153.609375 109.835938 154.808594 103.722656 156.644531 C 103.1875 156.871094 102.628906 157.007812 102.050781 157.050781 Z M 102.050781 157.050781 " fill-opacity="1" fill-rule="nonzero"/><path fill="#231f20" d="M 224.6875 279.804688 C 224.207031 279.867188 223.726562 279.867188 223.246094 279.804688 C 222.882812 279.691406 222.535156 279.546875 222.203125 279.367188 C 221.871094 279.1875 221.558594 278.976562 221.265625 278.734375 C 220.976562 278.492188 220.710938 278.222656 220.472656 277.929688 C 220.234375 277.636719 220.027344 277.320312 219.847656 276.984375 C 219.671875 276.652344 219.53125 276.300781 219.421875 275.9375 C 219.3125 275.578125 219.242188 275.207031 219.207031 274.828125 C 219.171875 274.453125 219.171875 274.074219 219.210938 273.699219 C 219.25 273.320312 219.324219 272.953125 219.4375 272.589844 C 222.078125 263.644531 223.347656 254.503906 223.246094 245.175781 C 223.238281 241.585938 223.027344 238.007812 222.613281 234.441406 C 222.554688 234.058594 222.535156 233.671875 222.558594 233.285156 C 222.578125 232.898438 222.640625 232.515625 222.738281 232.140625 C 222.835938 231.765625 222.96875 231.40625 223.140625 231.054688 C 223.3125 230.707031 223.515625 230.378906 223.753906 230.074219 C 223.988281 229.765625 224.253906 229.484375 224.546875 229.234375 C 224.84375 228.980469 225.15625 228.757812 225.496094 228.566406 C 225.835938 228.378906 226.1875 228.222656 226.558594 228.105469 C 226.925781 227.984375 227.304688 227.90625 227.691406 227.863281 C 228.066406 227.820312 228.445312 227.8125 228.824219 227.84375 C 229.203125 227.871094 229.574219 227.941406 229.9375 228.042969 C 230.304688 228.148438 230.65625 228.285156 230.996094 228.460938 C 231.332031 228.632812 231.648438 228.835938 231.949219 229.074219 C 232.246094 229.308594 232.515625 229.570312 232.761719 229.859375 C 233.007812 230.152344 233.222656 230.460938 233.40625 230.792969 C 233.59375 231.125 233.742188 231.472656 233.859375 231.832031 C 233.972656 232.195312 234.054688 232.566406 234.097656 232.941406 C 234.921875 240.109375 235.011719 247.28125 234.359375 254.464844 C 233.707031 261.648438 232.332031 268.691406 230.230469 275.589844 C 230.058594 276.195312 229.796875 276.757812 229.445312 277.277344 C 229.09375 277.796875 228.664062 278.246094 228.164062 278.628906 C 227.664062 279.007812 227.117188 279.296875 226.523438 279.5 C 225.929688 279.703125 225.316406 279.804688 224.6875 279.804688 Z M 224.6875 279.804688 " fill-opacity="1" fill-rule="nonzero"/><path fill="#231f20" d="M 130.90625 349.058594 C 123.554688 349.082031 116.28125 348.320312 109.09375 346.785156 C 101.902344 345.246094 94.957031 342.964844 88.257812 339.941406 C 87.910156 339.785156 87.582031 339.597656 87.273438 339.378906 C 86.964844 339.15625 86.679688 338.910156 86.417969 338.632812 C 86.15625 338.355469 85.925781 338.058594 85.726562 337.734375 C 85.523438 337.414062 85.355469 337.074219 85.21875 336.722656 C 85.085938 336.367188 84.984375 336 84.921875 335.628906 C 84.859375 335.253906 84.832031 334.875 84.84375 334.496094 C 84.855469 334.117188 84.902344 333.742188 84.988281 333.371094 C 85.074219 333.003906 85.191406 332.644531 85.347656 332.296875 C 85.503906 331.949219 85.691406 331.621094 85.910156 331.3125 C 86.128906 331.003906 86.378906 330.71875 86.65625 330.457031 C 86.929688 330.195312 87.230469 329.964844 87.550781 329.765625 C 87.871094 329.5625 88.210938 329.394531 88.566406 329.257812 C 88.917969 329.121094 89.285156 329.023438 89.65625 328.960938 C 90.03125 328.894531 90.410156 328.867188 90.789062 328.878906 C 91.167969 328.890625 91.542969 328.9375 91.914062 329.019531 C 92.285156 329.105469 92.640625 329.226562 92.988281 329.378906 C 98.941406 332.082031 105.117188 334.121094 111.507812 335.492188 C 117.902344 336.863281 124.367188 337.539062 130.90625 337.515625 C 140.0625 337.523438 149.027344 336.214844 157.800781 333.59375 C 158.164062 333.488281 158.535156 333.417969 158.910156 333.382812 C 159.289062 333.351562 159.667969 333.355469 160.042969 333.394531 C 160.417969 333.4375 160.789062 333.515625 161.152344 333.628906 C 161.511719 333.742188 161.859375 333.890625 162.191406 334.074219 C 162.523438 334.253906 162.835938 334.46875 163.125 334.710938 C 163.414062 334.957031 163.679688 335.226562 163.917969 335.519531 C 164.152344 335.816406 164.359375 336.132812 164.535156 336.46875 C 164.710938 336.804688 164.851562 337.152344 164.957031 337.515625 C 165.066406 337.878906 165.144531 338.25 165.183594 338.625 C 165.222656 339.003906 165.222656 339.378906 165.1875 339.757812 C 165.152344 340.132812 165.082031 340.503906 164.972656 340.867188 C 164.863281 341.230469 164.722656 341.578125 164.542969 341.914062 C 164.367188 342.246094 164.160156 342.5625 163.921875 342.855469 C 163.683594 343.148438 163.417969 343.417969 163.125 343.660156 C 162.835938 343.902344 162.523438 344.113281 162.191406 344.292969 C 161.855469 344.472656 161.507812 344.621094 161.148438 344.730469 C 151.28125 347.664062 141.199219 349.105469 130.90625 349.058594 Z M 130.90625 349.058594 " fill-opacity="1" fill-rule="nonzero"/><path fill="#231f20" d="M 39.199219 285.980469 C 38.617188 285.976562 38.050781 285.890625 37.496094 285.71875 C 36.941406 285.542969 36.425781 285.292969 35.945312 284.964844 C 35.464844 284.632812 35.046875 284.242188 34.6875 283.785156 C 34.328125 283.328125 34.042969 282.828125 33.832031 282.285156 C 31.789062 276.90625 30.199219 271.394531 29.066406 265.75 C 27.933594 260.105469 27.273438 254.40625 27.082031 248.652344 C 26.890625 242.902344 27.171875 237.171875 27.925781 231.464844 C 28.683594 225.757812 29.902344 220.152344 31.582031 214.648438 C 31.695312 214.296875 31.839844 213.960938 32.015625 213.640625 C 32.191406 213.320312 32.394531 213.015625 32.628906 212.734375 C 32.863281 212.453125 33.121094 212.195312 33.40625 211.960938 C 33.6875 211.726562 33.992188 211.523438 34.3125 211.347656 C 34.632812 211.171875 34.96875 211.027344 35.320312 210.917969 C 35.667969 210.804688 36.027344 210.726562 36.390625 210.683594 C 36.753906 210.640625 37.121094 210.632812 37.484375 210.65625 C 37.851562 210.683594 38.210938 210.742188 38.566406 210.839844 C 38.9375 210.9375 39.296875 211.074219 39.640625 211.246094 C 39.984375 211.417969 40.3125 211.621094 40.613281 211.855469 C 40.917969 212.09375 41.195312 212.359375 41.449219 212.648438 C 41.699219 212.941406 41.917969 213.257812 42.105469 213.59375 C 42.296875 213.929688 42.449219 214.28125 42.566406 214.648438 C 42.683594 215.015625 42.765625 215.390625 42.808594 215.773438 C 42.851562 216.15625 42.855469 216.539062 42.820312 216.921875 C 42.785156 217.304688 42.714844 217.683594 42.605469 218.050781 C 39.910156 226.894531 38.5625 235.933594 38.566406 245.175781 C 38.4375 256.519531 40.363281 267.503906 44.335938 278.132812 C 44.476562 278.476562 44.578125 278.832031 44.648438 279.199219 C 44.71875 279.5625 44.753906 279.933594 44.753906 280.304688 C 44.75 280.675781 44.714844 281.046875 44.640625 281.410156 C 44.566406 281.777344 44.460938 282.128906 44.320312 282.476562 C 44.179688 282.820312 44.003906 283.148438 43.800781 283.457031 C 43.59375 283.769531 43.363281 284.054688 43.101562 284.324219 C 42.839844 284.589844 42.558594 284.828125 42.25 285.039062 C 41.945312 285.25 41.621094 285.429688 41.277344 285.574219 C 40.613281 285.851562 39.921875 285.984375 39.199219 285.980469 Z M 39.199219 285.980469 " fill-opacity="1" fill-rule="nonzero"/><path fill="#231f20" d="M 61.652344 204.777344 C 60.707031 204.777344 59.761719 204.730469 58.820312 204.640625 C 57.882812 204.546875 56.949219 204.40625 56.019531 204.222656 C 55.09375 204.039062 54.179688 203.808594 53.273438 203.535156 C 52.371094 203.261719 51.480469 202.941406 50.609375 202.582031 C 49.734375 202.21875 48.882812 201.816406 48.046875 201.371094 C 47.214844 200.925781 46.40625 200.441406 45.617188 199.914062 C 44.832031 199.390625 44.074219 198.828125 43.34375 198.226562 C 42.613281 197.628906 41.914062 196.996094 41.246094 196.328125 C 40.578125 195.65625 39.945312 194.957031 39.34375 194.226562 C 38.746094 193.496094 38.183594 192.738281 37.65625 191.953125 C 37.132812 191.167969 36.648438 190.359375 36.203125 189.523438 C 35.757812 188.691406 35.351562 187.835938 34.992188 186.964844 C 34.628906 186.089844 34.3125 185.203125 34.035156 184.296875 C 33.761719 183.394531 33.53125 182.476562 33.347656 181.550781 C 33.164062 180.625 33.027344 179.691406 32.933594 178.75 C 32.839844 177.808594 32.792969 176.867188 32.792969 175.921875 C 32.792969 174.976562 32.839844 174.035156 32.933594 173.09375 C 33.027344 172.152344 33.164062 171.21875 33.347656 170.292969 C 33.53125 169.363281 33.761719 168.449219 34.035156 167.546875 C 34.3125 166.640625 34.628906 165.753906 34.992188 164.878906 C 35.351562 164.003906 35.757812 163.152344 36.203125 162.320312 C 36.648438 161.484375 37.132812 160.675781 37.65625 159.890625 C 38.183594 159.105469 38.746094 158.347656 39.34375 157.617188 C 39.945312 156.886719 40.578125 156.183594 41.246094 155.515625 C 41.914062 154.847656 42.613281 154.214844 43.34375 153.617188 C 44.074219 153.015625 44.832031 152.453125 45.617188 151.929688 C 46.40625 151.402344 47.214844 150.917969 48.046875 150.472656 C 48.882812 150.027344 49.734375 149.625 50.609375 149.261719 C 51.480469 148.898438 52.371094 148.582031 53.273438 148.308594 C 54.179688 148.035156 55.09375 147.804688 56.019531 147.621094 C 56.949219 147.433594 57.882812 147.296875 58.820312 147.203125 C 59.761719 147.113281 60.707031 147.066406 61.652344 147.066406 C 62.59375 147.066406 63.539062 147.113281 64.480469 147.203125 C 65.417969 147.296875 66.351562 147.433594 67.28125 147.621094 C 68.207031 147.804688 69.121094 148.035156 70.027344 148.308594 C 70.929688 148.582031 71.820312 148.898438 72.695312 149.261719 C 73.566406 149.625 74.417969 150.027344 75.253906 150.472656 C 76.085938 150.917969 76.894531 151.402344 77.683594 151.929688 C 78.46875 152.453125 79.226562 153.015625 79.957031 153.617188 C 80.6875 154.214844 81.386719 154.847656 82.054688 155.515625 C 82.722656 156.183594 83.355469 156.886719 83.957031 157.617188 C 84.554688 158.347656 85.117188 159.105469 85.644531 159.890625 C 86.167969 160.675781 86.652344 161.484375 87.097656 162.320312 C 87.546875 163.152344 87.949219 164.003906 88.308594 164.878906 C 88.671875 165.753906 88.988281 166.640625 89.265625 167.546875 C 89.539062 168.449219 89.769531 169.363281 89.953125 170.292969 C 90.136719 171.21875 90.273438 172.152344 90.367188 173.09375 C 90.460938 174.035156 90.507812 174.976562 90.507812 175.921875 C 90.507812 176.867188 90.460938 177.808594 90.367188 178.75 C 90.273438 179.691406 90.136719 180.625 89.953125 181.550781 C 89.769531 182.476562 89.539062 183.394531 89.265625 184.296875 C 88.988281 185.203125 88.671875 186.089844 88.308594 186.964844 C 87.949219 187.835938 87.546875 188.691406 87.097656 189.523438 C 86.652344 190.359375 86.167969 191.167969 85.644531 191.953125 C 85.117188 192.738281 84.554688 193.496094 83.957031 194.226562 C 83.355469 194.957031 82.722656 195.65625 82.054688 196.328125 C 81.386719 196.996094 80.6875 197.628906 79.957031 198.226562 C 79.226562 198.828125 78.46875 199.390625 77.683594 199.914062 C 76.894531 200.441406 76.085938 200.925781 75.253906 201.371094 C 74.417969 201.816406 73.566406 202.21875 72.695312 202.582031 C 71.820312 202.941406 70.929688 203.261719 70.027344 203.535156 C 69.121094 203.808594 68.207031 204.039062 67.28125 204.222656 C 66.351562 204.40625 65.417969 204.546875 64.480469 204.640625 C 63.539062 204.730469 62.59375 204.777344 61.652344 204.777344 Z M 61.652344 158.609375 C 61.082031 158.609375 60.519531 158.636719 59.953125 158.691406 C 59.390625 158.746094 58.828125 158.828125 58.273438 158.941406 C 57.714844 159.050781 57.167969 159.1875 56.625 159.351562 C 56.082031 159.519531 55.546875 159.707031 55.023438 159.925781 C 54.5 160.144531 53.988281 160.386719 53.488281 160.652344 C 52.988281 160.917969 52.503906 161.210938 52.03125 161.527344 C 51.558594 161.839844 51.105469 162.179688 50.667969 162.539062 C 50.226562 162.898438 49.808594 163.277344 49.40625 163.679688 C 49.007812 164.078125 48.625 164.5 48.265625 164.9375 C 47.90625 165.375 47.570312 165.832031 47.253906 166.300781 C 46.941406 166.773438 46.648438 167.261719 46.382812 167.761719 C 46.113281 168.261719 45.871094 168.773438 45.65625 169.296875 C 45.4375 169.820312 45.246094 170.351562 45.082031 170.894531 C 44.917969 171.4375 44.78125 171.988281 44.667969 172.542969 C 44.558594 173.101562 44.476562 173.660156 44.421875 174.226562 C 44.363281 174.789062 44.335938 175.355469 44.335938 175.921875 C 44.335938 176.488281 44.363281 177.054688 44.421875 177.617188 C 44.476562 178.183594 44.558594 178.742188 44.667969 179.300781 C 44.78125 179.855469 44.917969 180.40625 45.082031 180.949219 C 45.246094 181.492188 45.4375 182.023438 45.65625 182.546875 C 45.871094 183.070312 46.113281 183.582031 46.382812 184.082031 C 46.648438 184.582031 46.941406 185.070312 47.253906 185.539062 C 47.570312 186.011719 47.90625 186.46875 48.265625 186.90625 C 48.625 187.34375 49.007812 187.761719 49.40625 188.164062 C 49.808594 188.566406 50.226562 188.945312 50.667969 189.304688 C 51.105469 189.664062 51.558594 190.003906 52.03125 190.316406 C 52.503906 190.632812 52.988281 190.925781 53.488281 191.191406 C 53.988281 191.457031 54.5 191.699219 55.023438 191.917969 C 55.546875 192.132812 56.082031 192.324219 56.625 192.488281 C 57.167969 192.65625 57.714844 192.792969 58.273438 192.902344 C 58.828125 193.011719 59.390625 193.097656 59.953125 193.152344 C 60.519531 193.207031 61.082031 193.234375 61.652344 193.234375 C 62.21875 193.234375 62.785156 193.207031 63.347656 193.152344 C 63.910156 193.097656 64.472656 193.011719 65.027344 192.902344 C 65.585938 192.792969 66.132812 192.65625 66.675781 192.488281 C 67.21875 192.324219 67.753906 192.132812 68.277344 191.917969 C 68.800781 191.699219 69.3125 191.457031 69.8125 191.191406 C 70.3125 190.925781 70.796875 190.632812 71.269531 190.316406 C 71.742188 190.003906 72.195312 189.664062 72.632812 189.304688 C 73.074219 188.945312 73.492188 188.566406 73.894531 188.164062 C 74.292969 187.761719 74.675781 187.34375 75.035156 186.90625 C 75.394531 186.46875 75.730469 186.011719 76.046875 185.539062 C 76.363281 185.070312 76.652344 184.582031 76.921875 184.082031 C 77.1875 183.582031 77.429688 183.070312 77.644531 182.546875 C 77.863281 182.023438 78.054688 181.492188 78.21875 180.949219 C 78.382812 180.40625 78.519531 179.855469 78.632812 179.300781 C 78.742188 178.742188 78.824219 178.183594 78.882812 177.617188 C 78.9375 177.054688 78.964844 176.488281 78.964844 175.921875 C 78.964844 175.355469 78.9375 174.789062 78.882812 174.226562 C 78.824219 173.660156 78.742188 173.101562 78.632812 172.542969 C 78.519531 171.988281 78.382812 171.4375 78.21875 170.894531 C 78.054688 170.351562 77.863281 169.820312 77.644531 169.296875 C 77.429688 168.773438 77.1875 168.261719 76.921875 167.761719 C 76.652344 167.261719 76.363281 166.773438 76.046875 166.300781 C 75.730469 165.832031 75.394531 165.375 75.035156 164.9375 C 74.675781 164.5 74.292969 164.078125 73.894531 163.679688 C 73.492188 163.277344 73.074219 162.898438 72.632812 162.539062 C 72.195312 162.179688 71.742188 161.839844 71.269531 161.527344 C 70.796875 161.210938 70.3125 160.917969 69.8125 160.652344 C 69.3125 160.386719 68.800781 160.144531 68.277344 159.925781 C 67.753906 159.707031 67.21875 159.519531 66.675781 159.351562 C 66.132812 159.1875 65.585938 159.050781 65.027344 158.941406 C 64.472656 158.828125 63.910156 158.746094 63.347656 158.691406 C 62.785156 158.636719 62.21875 158.609375 61.652344 158.609375 Z M 61.652344 158.609375 " fill-opacity="1" fill-rule="nonzero"/><path fill="#231f20" d="M 200.160156 343.289062 C 199.214844 343.289062 198.273438 343.242188 197.332031 343.148438 C 196.390625 343.058594 195.457031 342.917969 194.53125 342.734375 C 193.605469 342.550781 192.6875 342.320312 191.785156 342.046875 C 190.878906 341.773438 189.992188 341.453125 189.117188 341.09375 C 188.246094 340.730469 187.390625 340.328125 186.558594 339.882812 C 185.726562 339.4375 184.914062 338.949219 184.128906 338.425781 C 183.34375 337.902344 182.585938 337.339844 181.855469 336.738281 C 181.125 336.140625 180.425781 335.503906 179.757812 334.835938 C 179.089844 334.167969 178.453125 333.46875 177.855469 332.738281 C 177.253906 332.007812 176.691406 331.25 176.167969 330.464844 C 175.644531 329.679688 175.15625 328.867188 174.710938 328.035156 C 174.265625 327.203125 173.863281 326.347656 173.5 325.476562 C 173.140625 324.601562 172.820312 323.714844 172.546875 322.808594 C 172.273438 321.90625 172.042969 320.988281 171.859375 320.0625 C 171.675781 319.136719 171.535156 318.203125 171.445312 317.261719 C 171.351562 316.320312 171.304688 315.378906 171.304688 314.433594 C 171.304688 313.488281 171.351562 312.542969 171.445312 311.605469 C 171.535156 310.664062 171.675781 309.730469 171.859375 308.804688 C 172.042969 307.875 172.273438 306.960938 172.546875 306.054688 C 172.820312 305.152344 173.140625 304.261719 173.5 303.390625 C 173.863281 302.515625 174.265625 301.664062 174.710938 300.828125 C 175.15625 299.996094 175.644531 299.1875 176.167969 298.402344 C 176.691406 297.613281 177.253906 296.855469 177.855469 296.125 C 178.453125 295.394531 179.089844 294.695312 179.757812 294.027344 C 180.425781 293.359375 181.125 292.726562 181.855469 292.125 C 182.585938 291.527344 183.34375 290.964844 184.128906 290.4375 C 184.914062 289.914062 185.726562 289.429688 186.558594 288.984375 C 187.390625 288.539062 188.246094 288.132812 189.117188 287.773438 C 189.992188 287.410156 190.878906 287.09375 191.785156 286.820312 C 192.6875 286.542969 193.605469 286.316406 194.53125 286.128906 C 195.457031 285.945312 196.390625 285.808594 197.332031 285.714844 C 198.273438 285.621094 199.214844 285.574219 200.160156 285.574219 C 201.105469 285.574219 202.050781 285.621094 202.988281 285.714844 C 203.929688 285.808594 204.863281 285.945312 205.789062 286.128906 C 206.71875 286.316406 207.632812 286.542969 208.539062 286.820312 C 209.441406 287.09375 210.332031 287.410156 211.203125 287.773438 C 212.078125 288.132812 212.929688 288.539062 213.765625 288.984375 C 214.597656 289.429688 215.40625 289.914062 216.191406 290.4375 C 216.980469 290.964844 217.738281 291.527344 218.46875 292.125 C 219.199219 292.726562 219.898438 293.359375 220.566406 294.027344 C 221.234375 294.695312 221.867188 295.394531 222.46875 296.125 C 223.066406 296.855469 223.628906 297.613281 224.15625 298.402344 C 224.679688 299.1875 225.164062 299.996094 225.609375 300.828125 C 226.054688 301.664062 226.460938 302.515625 226.820312 303.390625 C 227.183594 304.261719 227.5 305.152344 227.773438 306.054688 C 228.050781 306.960938 228.277344 307.875 228.464844 308.804688 C 228.648438 309.730469 228.785156 310.664062 228.878906 311.605469 C 228.972656 312.542969 229.015625 313.488281 229.015625 314.433594 C 229.015625 315.378906 228.972656 316.320312 228.878906 317.261719 C 228.785156 318.203125 228.648438 319.136719 228.464844 320.0625 C 228.277344 320.988281 228.050781 321.90625 227.773438 322.808594 C 227.5 323.714844 227.183594 324.601562 226.820312 325.476562 C 226.460938 326.347656 226.054688 327.203125 225.609375 328.035156 C 225.164062 328.867188 224.679688 329.679688 224.15625 330.464844 C 223.628906 331.25 223.066406 332.007812 222.46875 332.738281 C 221.867188 333.46875 221.234375 334.167969 220.566406 334.835938 C 219.898438 335.503906 219.199219 336.140625 218.46875 336.738281 C 217.738281 337.339844 216.980469 337.902344 216.191406 338.425781 C 215.40625 338.949219 214.597656 339.4375 213.765625 339.882812 C 212.929688 340.328125 212.078125 340.730469 211.203125 341.09375 C 210.332031 341.453125 209.441406 341.773438 208.539062 342.046875 C 207.632812 342.320312 206.71875 342.550781 205.789062 342.734375 C 204.863281 342.917969 203.929688 343.058594 202.988281 343.148438 C 202.050781 343.242188 201.105469 343.289062 200.160156 343.289062 Z M 200.160156 297.117188 C 199.59375 297.117188 199.027344 297.144531 198.464844 297.203125 C 197.898438 297.257812 197.339844 297.339844 196.785156 297.453125 C 196.226562 297.5625 195.679688 297.699219 195.136719 297.863281 C 194.59375 298.027344 194.058594 298.21875 193.535156 298.4375 C 193.011719 298.652344 192.5 298.894531 192 299.164062 C 191.5 299.429688 191.011719 299.722656 190.542969 300.035156 C 190.070312 300.351562 189.617188 300.6875 189.175781 301.046875 C 188.738281 301.410156 188.320312 301.789062 187.917969 302.191406 C 187.515625 302.589844 187.136719 303.011719 186.777344 303.449219 C 186.417969 303.886719 186.082031 304.34375 185.765625 304.8125 C 185.449219 305.285156 185.160156 305.769531 184.890625 306.269531 C 184.625 306.769531 184.382812 307.28125 184.164062 307.808594 C 183.949219 308.332031 183.757812 308.863281 183.59375 309.40625 C 183.429688 309.949219 183.289062 310.5 183.179688 311.054688 C 183.070312 311.609375 182.984375 312.171875 182.929688 312.734375 C 182.875 313.300781 182.847656 313.867188 182.847656 314.433594 C 182.847656 315 182.875 315.566406 182.929688 316.128906 C 182.984375 316.695312 183.070312 317.253906 183.179688 317.808594 C 183.289062 318.367188 183.429688 318.914062 183.59375 319.457031 C 183.757812 320 183.949219 320.535156 184.164062 321.058594 C 184.382812 321.582031 184.625 322.09375 184.890625 322.59375 C 185.160156 323.09375 185.449219 323.578125 185.765625 324.050781 C 186.082031 324.523438 186.417969 324.976562 186.777344 325.417969 C 187.136719 325.855469 187.515625 326.273438 187.917969 326.675781 C 188.320312 327.074219 188.738281 327.457031 189.175781 327.816406 C 189.617188 328.175781 190.070312 328.511719 190.542969 328.828125 C 191.011719 329.144531 191.5 329.433594 192 329.703125 C 192.5 329.96875 193.011719 330.210938 193.535156 330.429688 C 194.058594 330.644531 194.59375 330.835938 195.136719 331 C 195.679688 331.164062 196.226562 331.304688 196.785156 331.414062 C 197.339844 331.523438 197.898438 331.605469 198.464844 331.664062 C 199.027344 331.71875 199.59375 331.746094 200.160156 331.746094 C 200.726562 331.746094 201.292969 331.71875 201.859375 331.664062 C 202.421875 331.605469 202.984375 331.523438 203.539062 331.414062 C 204.09375 331.304688 204.644531 331.164062 205.1875 331 C 205.730469 330.835938 206.261719 330.644531 206.785156 330.429688 C 207.3125 330.210938 207.824219 329.96875 208.324219 329.703125 C 208.824219 329.433594 209.308594 329.144531 209.78125 328.828125 C 210.25 328.511719 210.707031 328.175781 211.144531 327.816406 C 211.582031 327.457031 212.003906 327.074219 212.402344 326.675781 C 212.804688 326.273438 213.183594 325.855469 213.542969 325.417969 C 213.90625 324.976562 214.242188 324.523438 214.558594 324.050781 C 214.871094 323.578125 215.164062 323.09375 215.429688 322.59375 C 215.699219 322.09375 215.941406 321.582031 216.15625 321.058594 C 216.375 320.535156 216.566406 320 216.730469 319.457031 C 216.894531 318.914062 217.03125 318.367188 217.140625 317.808594 C 217.253906 317.253906 217.335938 316.695312 217.390625 316.128906 C 217.445312 315.566406 217.476562 315 217.476562 314.433594 C 217.476562 313.867188 217.445312 313.300781 217.390625 312.734375 C 217.335938 312.171875 217.253906 311.609375 217.140625 311.054688 C 217.03125 310.5 216.894531 309.949219 216.730469 309.40625 C 216.566406 308.863281 216.375 308.332031 216.15625 307.808594 C 215.941406 307.28125 215.699219 306.769531 215.429688 306.269531 C 215.164062 305.769531 214.871094 305.285156 214.558594 304.8125 C 214.242188 304.34375 213.90625 303.886719 213.542969 303.449219 C 213.183594 303.011719 212.804688 302.589844 212.402344 302.191406 C 212.003906 301.789062 211.582031 301.410156 211.144531 301.046875 C 210.707031 300.6875 210.25 300.351562 209.78125 300.035156 C 209.308594 299.722656 208.824219 299.429688 208.324219 299.164062 C 207.824219 298.894531 207.3125 298.652344 206.785156 298.4375 C 206.261719 298.21875 205.730469 298.027344 205.1875 297.863281 C 204.644531 297.699219 204.09375 297.5625 203.539062 297.453125 C 202.984375 297.339844 202.421875 297.257812 201.859375 297.203125 C 201.292969 297.144531 200.726562 297.117188 200.160156 297.117188 Z M 200.160156 297.117188 " fill-opacity="1" fill-rule="nonzero"/><path fill="#231f20" d="M 129.695312 304.910156 C 128.921875 304.90625 128.183594 304.753906 127.472656 304.453125 C 126.761719 304.15625 126.136719 303.730469 125.597656 303.179688 L 68.519531 246.042969 C 68.253906 245.773438 68.015625 245.484375 67.804688 245.167969 C 67.597656 244.855469 67.421875 244.523438 67.277344 244.175781 C 67.132812 243.824219 67.023438 243.464844 66.949219 243.097656 C 66.875 242.726562 66.839844 242.351562 66.839844 241.972656 C 66.839844 241.597656 66.875 241.222656 66.949219 240.851562 C 67.023438 240.480469 67.132812 240.121094 67.277344 239.773438 C 67.421875 239.425781 67.597656 239.09375 67.804688 238.777344 C 68.015625 238.464844 68.253906 238.171875 68.519531 237.90625 L 150.125 156.300781 C 150.390625 156.035156 150.683594 155.796875 150.996094 155.585938 C 151.3125 155.378906 151.644531 155.203125 151.992188 155.058594 C 152.339844 154.914062 152.699219 154.804688 153.070312 154.730469 C 153.441406 154.65625 153.816406 154.621094 154.191406 154.621094 C 154.570312 154.621094 154.945312 154.65625 155.316406 154.730469 C 155.683594 154.804688 156.042969 154.914062 156.394531 155.058594 C 156.742188 155.203125 157.074219 155.378906 157.386719 155.585938 C 157.703125 155.796875 157.992188 156.035156 158.261719 156.300781 L 215.398438 213.433594 C 215.929688 213.972656 216.34375 214.589844 216.632812 215.289062 C 216.921875 215.988281 217.066406 216.71875 217.070312 217.476562 C 217.074219 218.242188 216.933594 218.980469 216.640625 219.691406 C 216.351562 220.402344 215.9375 221.027344 215.398438 221.574219 L 133.792969 303.179688 C 133.25 303.730469 132.625 304.15625 131.917969 304.453125 C 131.207031 304.753906 130.464844 304.90625 129.695312 304.910156 Z M 80.753906 242.003906 L 129.695312 290.941406 L 203.164062 217.476562 L 153.992188 168.535156 Z M 80.753906 242.003906 " fill-opacity="1" fill-rule="nonzero"/><path fill="#231f20" d="M 43.007812 334.457031 C 42.550781 334.457031 42.097656 334.402344 41.648438 334.289062 C 41.203125 334.179688 40.777344 334.019531 40.367188 333.808594 C 39.960938 333.59375 39.582031 333.335938 39.238281 333.035156 C 38.890625 332.734375 38.585938 332.394531 38.320312 332.019531 C 38.054688 331.644531 37.835938 331.242188 37.667969 330.8125 C 37.496094 330.386719 37.382812 329.945312 37.316406 329.488281 C 37.253906 329.035156 37.242188 328.578125 37.289062 328.121094 C 37.335938 327.664062 37.433594 327.21875 37.585938 326.78125 L 67.132812 240.214844 C 67.214844 239.984375 67.308594 239.761719 67.414062 239.542969 C 67.523438 239.324219 67.644531 239.113281 67.78125 238.914062 C 67.914062 238.710938 68.0625 238.515625 68.21875 238.332031 C 68.378906 238.148438 68.550781 237.976562 68.730469 237.8125 C 68.910156 237.652344 69.101562 237.5 69.300781 237.363281 C 69.5 237.226562 69.710938 237.101562 69.925781 236.988281 C 70.140625 236.875 70.363281 236.777344 70.589844 236.695312 C 70.820312 236.609375 71.050781 236.542969 71.289062 236.488281 C 71.527344 236.433594 71.765625 236.390625 72.007812 236.367188 C 72.25 236.34375 72.492188 236.335938 72.734375 236.339844 C 72.976562 236.347656 73.21875 236.371094 73.460938 236.40625 C 73.699219 236.441406 73.9375 236.496094 74.171875 236.5625 C 74.402344 236.628906 74.632812 236.710938 74.855469 236.804688 C 75.078125 236.902344 75.296875 237.011719 75.503906 237.132812 C 75.714844 237.257812 75.917969 237.390625 76.109375 237.539062 C 76.300781 237.6875 76.484375 237.847656 76.65625 238.019531 L 133.792969 295.15625 C 134.496094 295.855469 134.988281 296.683594 135.261719 297.640625 C 135.539062 298.59375 135.570312 299.554688 135.351562 300.523438 C 135.125 301.492188 134.679688 302.347656 134.011719 303.085938 C 133.34375 303.824219 132.539062 304.355469 131.597656 304.679688 L 45.027344 334.226562 C 44.371094 334.425781 43.695312 334.503906 43.007812 334.457031 Z M 75.039062 252.621094 L 52.300781 319.394531 L 119.363281 296.65625 Z M 75.039062 252.621094 " fill-opacity="1" fill-rule="nonzero"/><path fill="#231f20" d="M 43.007812 334.457031 C 42.550781 334.457031 42.097656 334.402344 41.648438 334.289062 C 41.203125 334.179688 40.777344 334.019531 40.367188 333.808594 C 39.960938 333.59375 39.582031 333.335938 39.238281 333.035156 C 38.890625 332.734375 38.585938 332.394531 38.320312 332.019531 C 38.054688 331.644531 37.835938 331.242188 37.667969 330.8125 C 37.496094 330.386719 37.382812 329.945312 37.316406 329.488281 C 37.253906 329.035156 37.242188 328.578125 37.289062 328.121094 C 37.335938 327.664062 37.433594 327.21875 37.585938 326.78125 L 50.398438 289.039062 C 50.613281 288.40625 50.925781 287.828125 51.34375 287.300781 C 51.757812 286.777344 52.25 286.339844 52.820312 285.988281 C 53.386719 285.636719 54 285.390625 54.652344 285.25 C 55.308594 285.109375 55.964844 285.082031 56.628906 285.171875 C 60.425781 285.652344 64.039062 286.738281 67.46875 288.429688 C 70.898438 290.121094 73.960938 292.324219 76.65625 295.039062 C 79.351562 297.75 81.542969 300.816406 83.230469 304.246094 C 84.921875 307.671875 86.019531 311.28125 86.523438 315.066406 C 86.605469 315.726562 86.574219 316.378906 86.433594 317.027344 C 86.289062 317.675781 86.042969 318.28125 85.6875 318.84375 C 85.335938 319.40625 84.902344 319.890625 84.378906 320.304688 C 83.859375 320.714844 83.285156 321.027344 82.65625 321.242188 L 44.914062 334.113281 C 44.296875 334.335938 43.664062 334.453125 43.007812 334.457031 Z M 59.6875 297.695312 L 52.300781 319.394531 L 74 312.007812 C 73.429688 310.351562 72.679688 308.777344 71.75 307.289062 C 70.820312 305.804688 69.738281 304.441406 68.496094 303.199219 C 67.257812 301.960938 65.894531 300.875 64.40625 299.945312 C 62.917969 299.015625 61.347656 298.265625 59.6875 297.695312 Z M 59.6875 297.695312 " fill-opacity="1" fill-rule="nonzero"/><path fill="#231f20" d="M 211.300781 225.671875 L 146.027344 160.339844 L 166.457031 139.964844 C 167.273438 139.191406 168.160156 138.5 169.109375 137.890625 C 170.058594 137.28125 171.058594 136.769531 172.105469 136.351562 C 173.152344 135.933594 174.230469 135.617188 175.339844 135.40625 C 176.445312 135.191406 177.5625 135.085938 178.691406 135.085938 C 179.820312 135.085938 180.9375 135.191406 182.046875 135.40625 C 183.152344 135.617188 184.230469 135.933594 185.277344 136.351562 C 186.324219 136.769531 187.324219 137.28125 188.273438 137.890625 C 189.226562 138.5 190.109375 139.191406 190.925781 139.964844 L 231.730469 180.769531 C 232.128906 181.171875 232.511719 181.589844 232.871094 182.027344 C 233.230469 182.464844 233.566406 182.921875 233.878906 183.390625 C 234.195312 183.863281 234.484375 184.347656 234.753906 184.847656 C 235.019531 185.347656 235.261719 185.859375 235.476562 186.382812 C 235.695312 186.90625 235.886719 187.441406 236.050781 187.984375 C 236.214844 188.523438 236.351562 189.074219 236.460938 189.628906 C 236.570312 190.183594 236.65625 190.746094 236.710938 191.308594 C 236.765625 191.871094 236.792969 192.4375 236.792969 193.003906 C 236.792969 193.570312 236.765625 194.136719 236.710938 194.699219 C 236.65625 195.265625 236.570312 195.824219 236.460938 196.378906 C 236.351562 196.9375 236.214844 197.484375 236.050781 198.027344 C 235.886719 198.570312 235.695312 199.101562 235.476562 199.625 C 235.261719 200.148438 235.019531 200.660156 234.753906 201.160156 C 234.484375 201.660156 234.195312 202.144531 233.878906 202.617188 C 233.566406 203.089844 233.230469 203.542969 232.871094 203.980469 C 232.511719 204.417969 232.128906 204.839844 231.730469 205.238281 Z M 162.359375 160.339844 L 211.300781 209.335938 L 223.59375 197.101562 C 223.863281 196.835938 224.105469 196.542969 224.316406 196.226562 C 224.53125 195.910156 224.710938 195.574219 224.855469 195.222656 C 225.003906 194.871094 225.113281 194.511719 225.1875 194.136719 C 225.261719 193.761719 225.300781 193.386719 225.300781 193.003906 C 225.300781 192.625 225.261719 192.246094 225.1875 191.871094 C 225.113281 191.5 225.003906 191.136719 224.855469 190.785156 C 224.710938 190.433594 224.53125 190.101562 224.316406 189.785156 C 224.105469 189.46875 223.863281 189.175781 223.59375 188.90625 L 182.847656 148.105469 C 182.578125 147.839844 182.289062 147.601562 181.972656 147.390625 C 181.660156 147.183594 181.328125 147.007812 180.980469 146.863281 C 180.628906 146.71875 180.269531 146.609375 179.898438 146.535156 C 179.53125 146.460938 179.15625 146.425781 178.777344 146.425781 C 178.402344 146.425781 178.027344 146.460938 177.65625 146.535156 C 177.285156 146.609375 176.925781 146.71875 176.578125 146.863281 C 176.230469 147.007812 175.898438 147.183594 175.582031 147.390625 C 175.269531 147.601562 174.976562 147.839844 174.710938 148.105469 Z M 162.359375 160.339844 " fill-opacity="1" fill-rule="nonzero"/><path fill="#231f20" d="M 129.695312 304.910156 C 128.921875 304.90625 128.183594 304.753906 127.472656 304.453125 C 126.761719 304.15625 126.136719 303.730469 125.597656 303.179688 L 109.320312 286.847656 C 109.054688 286.578125 108.816406 286.285156 108.609375 285.972656 C 108.398438 285.660156 108.222656 285.328125 108.078125 284.976562 C 107.933594 284.628906 107.828125 284.269531 107.753906 283.898438 C 107.679688 283.527344 107.644531 283.15625 107.644531 282.777344 C 107.644531 282.398438 107.679688 282.027344 107.753906 281.65625 C 107.828125 281.285156 107.933594 280.925781 108.078125 280.578125 C 108.222656 280.226562 108.398438 279.894531 108.609375 279.582031 C 108.816406 279.265625 109.054688 278.976562 109.320312 278.707031 L 190.925781 197.101562 C 191.195312 196.835938 191.484375 196.597656 191.800781 196.390625 C 192.113281 196.179688 192.445312 196.003906 192.796875 195.859375 C 193.144531 195.714844 193.503906 195.609375 193.875 195.535156 C 194.246094 195.460938 194.617188 195.425781 194.996094 195.425781 C 195.375 195.425781 195.746094 195.460938 196.117188 195.535156 C 196.488281 195.609375 196.847656 195.714844 197.195312 195.859375 C 197.546875 196.003906 197.878906 196.179688 198.191406 196.390625 C 198.503906 196.597656 198.796875 196.835938 199.066406 197.101562 L 215.398438 213.433594 C 215.929688 213.972656 216.34375 214.589844 216.632812 215.289062 C 216.921875 215.988281 217.066406 216.71875 217.070312 217.476562 C 217.074219 218.242188 216.933594 218.980469 216.640625 219.691406 C 216.351562 220.402344 215.9375 221.027344 215.398438 221.574219 L 133.792969 303.179688 C 133.25 303.730469 132.625 304.15625 131.917969 304.453125 C 131.207031 304.753906 130.464844 304.90625 129.695312 304.910156 Z M 121.554688 282.804688 L 129.695312 290.941406 L 203.164062 217.476562 L 195.023438 209.335938 Z M 121.554688 282.804688 " fill-opacity="1" fill-rule="nonzero"/><path fill="#231f20" d="M 88.890625 264.105469 C 88.117188 264.125 87.371094 263.996094 86.652344 263.714844 C 85.929688 263.4375 85.292969 263.027344 84.734375 262.492188 L 68.460938 246.15625 C 68.195312 245.890625 67.957031 245.597656 67.746094 245.285156 C 67.539062 244.972656 67.363281 244.640625 67.21875 244.289062 C 67.074219 243.941406 66.964844 243.582031 66.890625 243.210938 C 66.820312 242.839844 66.78125 242.46875 66.78125 242.089844 C 66.78125 241.710938 66.820312 241.339844 66.890625 240.96875 C 66.964844 240.597656 67.074219 240.238281 67.21875 239.890625 C 67.363281 239.539062 67.539062 239.207031 67.746094 238.894531 C 67.957031 238.578125 68.195312 238.289062 68.460938 238.019531 L 150.125 156.300781 C 150.390625 156.035156 150.683594 155.796875 150.996094 155.585938 C 151.3125 155.378906 151.644531 155.203125 151.992188 155.058594 C 152.339844 154.914062 152.699219 154.804688 153.070312 154.730469 C 153.441406 154.65625 153.816406 154.621094 154.191406 154.621094 C 154.570312 154.621094 154.945312 154.65625 155.316406 154.730469 C 155.683594 154.804688 156.042969 154.914062 156.394531 155.058594 C 156.742188 155.203125 157.074219 155.378906 157.386719 155.585938 C 157.703125 155.796875 157.992188 156.035156 158.261719 156.300781 L 174.59375 172.632812 C 175.128906 173.167969 175.539062 173.789062 175.828125 174.488281 C 176.117188 175.1875 176.265625 175.914062 176.269531 176.671875 C 176.273438 177.4375 176.128906 178.175781 175.839844 178.886719 C 175.550781 179.597656 175.132812 180.226562 174.59375 180.769531 L 92.988281 262.492188 C 92.4375 263.019531 91.808594 263.425781 91.101562 263.707031 C 90.390625 263.984375 89.652344 264.117188 88.890625 264.105469 Z M 80.753906 242.003906 L 88.890625 250.140625 L 162.359375 176.671875 L 153.992188 168.535156 Z M 80.753906 242.003906 " fill-opacity="1" fill-rule="nonzero"/></svg>