<svg xmlns="http://www.w3.org/2000/svg" xmlns:xlink="http://www.w3.org/1999/xlink" width="1080" zoomAndPan="magnify" viewBox="0 0 810 570" height="750" preserveAspectRatio="xMidYMid meet" version="1.0"><defs><clipPath id="877f74c9f4"><path d="M 174.222656 50.472656 L 635.472656 50.472656 L 635.472656 511 L 174.222656 511 Z M 174.222656 50.472656 " clip-rule="nonzero"/></clipPath><clipPath id="23b07a4525"><path d="M 301 135 L 512 135 L 512 511.722656 L 301 511.722656 Z M 301 135 " clip-rule="nonzero"/></clipPath></defs><g clip-path="url(#877f74c9f4)"><path fill="#0866ff" d="M 635.535156 281.140625 C 635.535156 153.738281 532.273438 50.472656 404.890625 50.472656 C 277.507812 50.472656 174.222656 153.738281 174.222656 281.140625 C 174.222656 389.3125 248.691406 480.089844 349.160156 505.015625 L 349.160156 351.632812 L 301.585938 351.632812 L 301.585938 281.140625 L 349.160156 281.140625 L 349.160156 250.769531 C 349.160156 172.265625 384.683594 135.871094 461.761719 135.871094 C 476.375 135.871094 501.589844 138.726562 511.902344 141.605469 L 511.902344 205.492188 C 506.457031 204.914062 496.996094 204.625 485.257812 204.625 C 447.433594 204.625 432.816406 218.949219 432.816406 256.195312 L 432.816406 281.121094 L 508.152344 281.121094 L 495.214844 351.613281 L 432.816406 351.613281 L 432.816406 510.089844 C 547.035156 496.300781 635.535156 399.039062 635.535156 281.121094 Z M 635.535156 281.140625 " fill-opacity="1" fill-rule="nonzero"/></g><g clip-path="url(#23b07a4525)"><path fill="#ffffff" d="M 495.234375 351.613281 L 508.175781 281.121094 L 432.839844 281.121094 L 432.839844 256.195312 C 432.839844 218.949219 447.453125 204.625 485.277344 204.625 C 497.015625 204.625 506.476562 204.914062 511.921875 205.492188 L 511.921875 141.605469 C 501.613281 138.75 476.398438 135.871094 461.78125 135.871094 C 384.707031 135.871094 349.179688 172.265625 349.179688 250.769531 L 349.179688 281.140625 L 301.605469 281.140625 L 301.605469 351.632812 L 349.179688 351.632812 L 349.179688 505.015625 C 367.027344 509.445312 385.679688 511.808594 404.910156 511.808594 C 414.371094 511.808594 423.6875 511.226562 432.859375 510.109375 L 432.859375 351.632812 L 495.257812 351.632812 Z M 495.234375 351.613281 " fill-opacity="1" fill-rule="nonzero"/></g></svg>