<svg xmlns="http://www.w3.org/2000/svg" xmlns:xlink="http://www.w3.org/1999/xlink" width="1080" zoomAndPan="magnify" viewBox="0 0 810 570" height="750" preserveAspectRatio="xMidYMid meet" version="1.0"><path fill="#00ac47" d="M 513.984375 281.25 C 513.984375 282.835938 513.953125 284.421875 513.882812 286.007812 C 513.816406 287.59375 513.710938 289.175781 513.574219 290.757812 C 513.4375 292.339844 513.265625 293.914062 513.058594 295.488281 C 512.851562 297.0625 512.613281 298.628906 512.335938 300.191406 C 512.0625 301.757812 511.753906 303.3125 511.410156 304.863281 C 511.066406 306.410156 510.691406 307.953125 510.28125 309.484375 C 509.871094 311.015625 509.425781 312.539062 508.949219 314.054688 C 508.472656 315.566406 507.960938 317.070312 507.421875 318.5625 C 506.878906 320.050781 506.304688 321.53125 505.695312 322.996094 C 505.089844 324.464844 504.449219 325.914062 503.777344 327.351562 C 503.109375 328.792969 502.40625 330.214844 501.671875 331.621094 C 500.941406 333.027344 500.175781 334.417969 499.382812 335.792969 C 498.589844 337.167969 497.765625 338.523438 496.914062 339.863281 C 496.0625 341.199219 495.179688 342.519531 494.269531 343.820312 C 493.359375 345.117188 492.417969 346.398438 491.453125 347.65625 C 490.484375 348.914062 489.492188 350.152344 488.472656 351.367188 C 487.453125 352.582031 486.40625 353.773438 485.332031 354.941406 C 484.257812 356.113281 483.160156 357.257812 482.039062 358.378906 C 480.917969 359.5 479.769531 360.597656 478.597656 361.667969 C 477.429688 362.738281 476.234375 363.785156 475.019531 364.804688 C 473.800781 365.824219 472.5625 366.816406 471.304688 367.78125 C 470.046875 368.746094 468.765625 369.679688 467.464844 370.589844 C 466.164062 371.5 464.84375 372.378906 463.503906 373.230469 C 462.164062 374.082031 460.808594 374.902344 459.433594 375.695312 C 458.058594 376.488281 456.667969 377.25 455.257812 377.980469 C 453.851562 378.710938 452.425781 379.410156 450.988281 380.082031 C 449.546875 380.75 448.09375 381.386719 446.628906 381.992188 C 445.160156 382.597656 443.683594 383.171875 442.191406 383.710938 C 440.699219 384.253906 439.195312 384.761719 437.683594 385.234375 C 436.167969 385.710938 434.644531 386.152344 433.109375 386.5625 C 431.578125 386.96875 430.035156 387.34375 428.484375 387.683594 C 426.9375 388.027344 425.378906 388.332031 423.816406 388.605469 C 422.253906 388.878906 420.683594 389.117188 419.113281 389.324219 C 417.539062 389.527344 415.960938 389.699219 414.378906 389.832031 C 412.796875 389.96875 411.214844 390.070312 409.628906 390.136719 C 408.042969 390.203125 406.457031 390.234375 404.871094 390.230469 C 403.285156 390.226562 401.699219 390.191406 400.113281 390.117188 C 398.527344 390.046875 396.945312 389.9375 395.363281 389.796875 C 393.785156 389.65625 392.207031 389.480469 390.636719 389.269531 C 389.0625 389.058594 387.496094 388.8125 385.933594 388.535156 C 384.371094 388.257812 382.816406 387.945312 381.265625 387.597656 C 379.71875 387.25 378.179688 386.871094 376.644531 386.453125 C 375.113281 386.039062 373.59375 385.59375 372.082031 385.113281 C 370.566406 384.632812 369.066406 384.117188 367.578125 383.570312 C 366.085938 383.027344 364.609375 382.445312 363.144531 381.835938 C 361.679688 381.226562 360.230469 380.582031 358.792969 379.90625 C 357.359375 379.234375 355.9375 378.527344 354.53125 377.792969 C 353.125 377.054688 351.738281 376.289062 350.363281 375.492188 C 348.992188 374.695312 347.640625 373.867188 346.304688 373.011719 C 344.96875 372.15625 343.652344 371.269531 342.351562 370.355469 C 341.054688 369.441406 339.78125 368.5 338.523438 367.53125 C 337.265625 366.5625 336.03125 365.5625 334.820312 364.539062 C 333.609375 363.515625 332.417969 362.46875 331.25 361.390625 C 330.085938 360.316406 328.941406 359.214844 327.824219 358.089844 C 326.707031 356.964844 325.613281 355.816406 324.542969 354.640625 C 323.476562 353.46875 322.433594 352.273438 321.417969 351.054688 C 320.402344 349.832031 319.414062 348.59375 318.449219 347.332031 C 317.488281 346.070312 316.554688 344.785156 315.648438 343.484375 C 314.742188 342.179688 313.867188 340.859375 313.019531 339.515625 C 312.171875 338.175781 311.351562 336.816406 310.566406 335.441406 C 309.777344 334.0625 309.019531 332.667969 308.289062 331.257812 C 307.5625 329.847656 306.867188 328.421875 306.199219 326.984375 C 305.535156 325.542969 304.902344 324.085938 304.300781 322.617188 C 303.699219 321.152344 303.128906 319.667969 302.59375 318.175781 L 240.257812 368.046875 C 241.457031 370.328125 242.703125 372.582031 244 374.8125 C 245.292969 377.042969 246.632812 379.246094 248.019531 381.421875 C 249.402344 383.59375 250.832031 385.738281 252.308594 387.855469 C 253.78125 389.96875 255.300781 392.054688 256.863281 394.105469 C 258.421875 396.15625 260.027344 398.175781 261.671875 400.160156 C 263.316406 402.148438 265.003906 404.097656 266.730469 406.011719 C 268.453125 407.929688 270.21875 409.808594 272.023438 411.648438 C 273.828125 413.492188 275.667969 415.296875 277.550781 417.0625 C 279.429688 418.828125 281.34375 420.554688 283.292969 422.238281 C 285.246094 423.925781 287.230469 425.570312 289.25 427.175781 C 291.265625 428.777344 293.320312 430.339844 295.402344 431.859375 C 297.488281 433.375 299.601562 434.851562 301.746094 436.28125 C 303.890625 437.710938 306.066406 439.097656 308.269531 440.4375 C 310.472656 441.777344 312.699219 443.074219 314.957031 444.320312 C 317.214844 445.566406 319.496094 446.769531 321.800781 447.921875 C 324.105469 449.074219 326.4375 450.179688 328.789062 451.234375 C 331.140625 452.292969 333.515625 453.296875 335.90625 454.257812 C 338.300781 455.214844 340.714844 456.121094 343.148438 456.980469 C 345.578125 457.835938 348.027344 458.644531 350.492188 459.398438 C 352.957031 460.15625 355.4375 460.859375 357.929688 461.511719 C 360.425781 462.164062 362.933594 462.765625 365.453125 463.3125 C 367.972656 463.863281 370.5 464.359375 373.042969 464.800781 C 375.582031 465.246094 378.128906 465.636719 380.6875 465.976562 C 383.242188 466.3125 385.804688 466.597656 388.371094 466.828125 C 390.941406 467.058594 393.511719 467.238281 396.085938 467.363281 C 398.664062 467.488281 401.238281 467.558594 403.820312 467.574219 C 406.398438 467.59375 408.972656 467.558594 411.550781 467.46875 C 414.128906 467.378906 416.703125 467.234375 419.273438 467.039062 C 421.84375 466.84375 424.410156 466.59375 426.96875 466.289062 C 429.53125 465.988281 432.085938 465.628906 434.628906 465.222656 C 437.175781 464.8125 439.710938 464.351562 442.238281 463.835938 C 444.765625 463.320312 447.28125 462.753906 449.785156 462.136719 C 452.285156 461.515625 454.777344 460.847656 457.25 460.125 C 459.726562 459.402344 462.183594 458.628906 464.628906 457.804688 C 467.070312 456.980469 469.496094 456.105469 471.902344 455.179688 C 474.308594 454.253906 476.695312 453.28125 479.0625 452.257812 C 481.429688 451.234375 483.773438 450.160156 486.09375 449.039062 C 488.417969 447.917969 490.714844 446.746094 492.988281 445.53125 C 495.261719 444.3125 497.507812 443.050781 499.730469 441.738281 C 501.949219 440.429688 504.140625 439.074219 506.304688 437.671875 C 508.472656 436.269531 510.605469 434.824219 512.710938 433.335938 C 514.8125 431.84375 516.886719 430.3125 518.925781 428.734375 C 520.96875 427.160156 522.976562 425.542969 524.949219 423.882812 C 526.921875 422.222656 528.859375 420.523438 530.761719 418.78125 C 532.664062 417.042969 534.53125 415.265625 536.359375 413.445312 C 538.191406 411.628906 539.980469 409.773438 541.730469 407.882812 C 543.484375 405.992188 545.195312 404.0625 546.867188 402.101562 C 548.539062 400.136719 550.171875 398.140625 551.757812 396.109375 C 553.347656 394.078125 554.894531 392.015625 556.398438 389.921875 C 557.902344 387.828125 559.359375 385.703125 560.777344 383.546875 C 562.191406 381.390625 563.558594 379.207031 564.886719 376.996094 C 566.210938 374.78125 567.488281 372.542969 568.71875 370.277344 C 569.949219 368.011719 571.132812 365.722656 572.269531 363.40625 C 573.40625 361.09375 574.492188 358.757812 575.53125 356.394531 C 576.570312 354.035156 577.5625 351.65625 578.503906 349.253906 C 579.441406 346.855469 580.332031 344.433594 581.171875 341.996094 C 582.011719 339.558594 582.800781 337.105469 583.539062 334.632812 C 584.277344 332.164062 584.964844 329.679688 585.597656 327.179688 C 586.234375 324.679688 586.816406 322.167969 587.34375 319.644531 C 587.875 317.121094 588.355469 314.589844 588.777344 312.046875 C 589.203125 309.503906 589.574219 306.953125 589.894531 304.394531 C 590.214844 301.835938 590.480469 299.269531 590.691406 296.699219 C 590.90625 294.132812 591.066406 291.558594 591.171875 288.980469 C 591.277344 286.40625 591.328125 283.828125 591.328125 281.25 " fill-opacity="1" fill-rule="nonzero"/><path fill="#4285f4" d="M 513.984375 281.25 C 513.980469 285.570312 513.722656 289.875 513.203125 294.160156 C 512.6875 298.449219 511.921875 302.691406 510.898438 306.890625 C 509.878906 311.085938 508.613281 315.207031 507.097656 319.253906 C 505.585938 323.300781 503.839844 327.242188 501.859375 331.082031 C 499.878906 334.917969 497.675781 338.625 495.253906 342.203125 C 492.832031 345.777344 490.203125 349.199219 487.375 352.460938 C 484.542969 355.722656 481.53125 358.808594 478.332031 361.710938 C 475.136719 364.617188 471.777344 367.320312 468.257812 369.824219 L 529.886719 419.128906 C 534.703125 414.789062 539.28125 410.210938 543.621094 405.394531 C 547.960938 400.578125 552.035156 395.546875 555.84375 390.300781 C 559.65625 385.058594 563.183594 379.628906 566.425781 374.015625 C 569.671875 368.402344 572.609375 362.636719 575.25 356.714844 C 577.886719 350.792969 580.210938 344.75 582.214844 338.585938 C 584.222656 332.417969 585.902344 326.167969 587.25 319.828125 C 588.601562 313.484375 589.617188 307.09375 590.300781 300.644531 C 590.980469 294.199219 591.324219 287.734375 591.328125 281.25 " fill-opacity="1" fill-rule="nonzero"/><path fill="#ffba00" d="M 296.015625 281.25 C 296.042969 268.554688 298.234375 256.246094 302.59375 244.324219 L 240.257812 194.453125 C 238.492188 197.78125 236.832031 201.160156 235.273438 204.585938 C 233.71875 208.011719 232.265625 211.484375 230.917969 215 C 229.574219 218.515625 228.335938 222.070312 227.207031 225.664062 C 226.078125 229.253906 225.058594 232.878906 224.148438 236.53125 C 223.242188 240.183594 222.445312 243.863281 221.757812 247.5625 C 221.074219 251.265625 220.503906 254.984375 220.046875 258.722656 C 219.589844 262.460938 219.246094 266.207031 219.015625 269.964844 C 218.785156 273.722656 218.671875 277.484375 218.671875 281.25 C 218.671875 285.015625 218.785156 288.777344 219.015625 292.535156 C 219.246094 296.292969 219.589844 300.039062 220.046875 303.777344 C 220.503906 307.515625 221.074219 311.234375 221.757812 314.9375 C 222.445312 318.636719 223.242188 322.316406 224.148438 325.96875 C 225.058594 329.625 226.078125 333.246094 227.207031 336.835938 C 228.335938 340.429688 229.574219 343.984375 230.917969 347.5 C 232.265625 351.015625 233.71875 354.488281 235.273438 357.914062 C 236.832031 361.339844 238.492188 364.71875 240.257812 368.046875 L 302.59375 318.175781 C 298.234375 306.253906 296.042969 293.945312 296.015625 281.25 Z M 296.015625 281.25 " fill-opacity="1" fill-rule="nonzero"/><path fill="#ea4435" d="M 405 172.265625 C 410.730469 172.265625 416.421875 172.71875 422.078125 173.625 C 427.734375 174.53125 433.285156 175.878906 438.730469 177.664062 C 444.171875 179.449219 449.441406 181.652344 454.535156 184.277344 C 459.625 186.898438 464.480469 189.90625 469.097656 193.300781 L 526.191406 140.011719 C 523.550781 137.738281 520.851562 135.539062 518.089844 133.414062 C 515.328125 131.292969 512.507812 129.25 509.628906 127.285156 C 506.75 125.320312 503.820312 123.4375 500.835938 121.636719 C 497.855469 119.835938 494.824219 118.121094 491.742188 116.492188 C 488.664062 114.863281 485.539062 113.324219 482.375 111.867188 C 479.207031 110.414062 476.003906 109.050781 472.761719 107.777344 C 469.515625 106.503906 466.242188 105.324219 462.929688 104.234375 C 459.621094 103.144531 456.285156 102.148438 452.917969 101.25 C 449.554688 100.347656 446.164062 99.542969 442.753906 98.832031 C 439.34375 98.121094 435.914062 97.503906 432.46875 96.988281 C 429.023438 96.46875 425.566406 96.046875 422.097656 95.726562 C 418.628906 95.402344 415.152344 95.175781 411.671875 95.046875 C 408.1875 94.917969 404.707031 94.890625 401.222656 94.957031 C 397.738281 95.023438 394.261719 95.191406 390.785156 95.453125 C 387.3125 95.71875 383.847656 96.078125 380.394531 96.535156 C 376.941406 96.996094 373.503906 97.550781 370.078125 98.203125 C 366.65625 98.851562 363.253906 99.601562 359.875 100.441406 C 356.496094 101.285156 353.140625 102.222656 349.8125 103.253906 C 346.484375 104.285156 343.1875 105.410156 339.921875 106.628906 C 336.660156 107.84375 333.429688 109.152344 330.238281 110.550781 C 327.046875 111.949219 323.898438 113.4375 320.792969 115.011719 C 317.683594 116.589844 314.625 118.25 311.609375 120 C 308.59375 121.746094 305.632812 123.578125 302.722656 125.492188 C 299.8125 127.40625 296.957031 129.402344 294.15625 131.476562 C 291.359375 133.550781 288.621094 135.703125 285.941406 137.933594 C 283.265625 140.164062 280.652344 142.464844 278.101562 144.839844 C 275.554688 147.21875 273.074219 149.664062 270.664062 152.179688 C 268.253906 154.695312 265.914062 157.273438 263.652344 159.921875 C 261.386719 162.570312 259.195312 165.277344 257.082031 168.046875 C 254.96875 170.816406 252.9375 173.644531 250.980469 176.53125 C 249.027344 179.414062 247.15625 182.351562 245.367188 185.339844 C 243.578125 188.332031 241.875 191.371094 240.257812 194.453125 L 302.59375 244.324219 C 303.535156 241.707031 304.578125 239.132812 305.71875 236.597656 C 306.859375 234.0625 308.09375 231.574219 309.425781 229.132812 C 310.753906 226.691406 312.175781 224.304688 313.691406 221.972656 C 315.203125 219.640625 316.800781 217.371094 318.488281 215.160156 C 320.175781 212.949219 321.945312 210.808594 323.792969 208.734375 C 325.644531 206.660156 327.570312 204.65625 329.574219 202.730469 C 331.578125 200.804688 333.652344 198.957031 335.796875 197.1875 C 337.941406 195.417969 340.152344 193.734375 342.425781 192.132812 C 344.699219 190.535156 347.03125 189.023438 349.417969 187.601562 C 351.808594 186.179688 354.25 184.851562 356.738281 183.617188 C 359.230469 182.382812 361.765625 181.246094 364.339844 180.203125 C 366.917969 179.164062 369.53125 178.222656 372.183594 177.378906 C 374.832031 176.539062 377.511719 175.800781 380.214844 175.164062 C 382.921875 174.527344 385.648438 173.996094 388.394531 173.566406 C 391.140625 173.136719 393.902344 172.816406 396.671875 172.597656 C 399.445312 172.382812 402.21875 172.269531 405 172.265625 Z M 405 172.265625 " fill-opacity="1" fill-rule="nonzero"/><path fill="#4285f4" d="M 591.328125 267.1875 L 591.328125 281.25 L 559.6875 330.46875 L 412.03125 330.46875 L 412.03125 253.125 L 577.265625 253.125 C 578.1875 253.125 579.101562 253.214844 580.007812 253.394531 C 580.914062 253.574219 581.792969 253.84375 582.648438 254.195312 C 583.5 254.546875 584.308594 254.980469 585.078125 255.496094 C 585.847656 256.007812 586.554688 256.589844 587.210938 257.242188 C 587.863281 257.898438 588.445312 258.605469 588.957031 259.375 C 589.472656 260.140625 589.902344 260.953125 590.257812 261.804688 C 590.609375 262.660156 590.878906 263.539062 591.058594 264.445312 C 591.238281 265.351562 591.328125 266.265625 591.328125 267.1875 Z M 591.328125 267.1875 " fill-opacity="1" fill-rule="nonzero"/></svg>