<svg xmlns="http://www.w3.org/2000/svg" xmlns:xlink="http://www.w3.org/1999/xlink" width="500" zoomAndPan="magnify" viewBox="0 0 375 374.999991" height="500" preserveAspectRatio="xMidYMid meet" version="1.0"><defs><clipPath id="c605308376"><path d="M 5.5625 42 L 71 42 L 71 178 L 5.5625 178 Z M 5.5625 42 " clip-rule="nonzero"/></clipPath><clipPath id="719416195e"><path d="M 302 42 L 367.8125 42 L 367.8125 178 L 302 178 Z M 302 42 " clip-rule="nonzero"/></clipPath><clipPath id="f7be6d6242"><path d="M 28 7.210938 L 346 7.210938 L 346 369.460938 L 28 369.460938 Z M 28 7.210938 " clip-rule="nonzero"/></clipPath></defs><g clip-path="url(#c605308376)"><path fill="#000000" d="M 66.738281 45.609375 C 62.050781 41.46875 54.898438 41.875 50.753906 46.5625 C 21.617188 79.457031 5.5625 121.773438 5.5625 165.695312 C 5.5625 171.945312 10.636719 177.015625 16.882812 177.015625 C 23.132812 177.015625 28.203125 171.945312 28.203125 165.695312 C 28.203125 127.296875 42.21875 90.324219 67.691406 61.570312 C 71.855469 56.90625 71.402344 49.753906 66.738281 45.609375 Z M 66.738281 45.609375 " fill-opacity="1" fill-rule="nonzero"/></g><g clip-path="url(#719416195e)"><path fill="#000000" d="M 322.625 46.5625 C 318.480469 41.875 311.324219 41.445312 306.640625 45.609375 C 301.976562 49.753906 301.523438 56.90625 305.6875 61.59375 C 331.160156 90.324219 345.171875 127.296875 345.171875 165.695312 C 345.171875 171.945312 350.246094 177.015625 356.492188 177.015625 C 362.742188 177.015625 367.8125 171.945312 367.8125 165.695312 C 367.8125 121.773438 351.761719 79.457031 322.625 46.5625 Z M 322.625 46.5625 " fill-opacity="1" fill-rule="nonzero"/></g><g clip-path="url(#f7be6d6242)"><path fill="#000000" d="M 338.925781 280.097656 C 314.859375 268.054688 299.890625 243.875 299.890625 216.953125 L 299.890625 165.695312 C 299.890625 115.183594 266.40625 72.800781 220.648438 58.265625 L 220.648438 41.171875 C 220.648438 22.449219 205.414062 7.210938 186.6875 7.210938 C 167.964844 7.210938 152.726562 22.449219 152.726562 41.171875 L 152.726562 58.265625 C 106.972656 72.800781 73.484375 115.183594 73.484375 165.695312 L 73.484375 216.953125 C 73.484375 243.851562 58.519531 268.054688 34.453125 280.097656 C 30.332031 282.160156 27.867188 286.527344 28.226562 291.125 C 28.589844 295.722656 31.714844 299.636719 36.105469 301.042969 C 70.746094 311.953125 106.089844 318.816406 141.613281 322.050781 C 141.589844 322.753906 141.40625 323.457031 141.40625 324.179688 C 141.40625 349.152344 161.714844 369.460938 186.6875 369.460938 C 211.660156 369.460938 231.96875 349.152344 231.96875 324.179688 C 231.96875 323.457031 231.789062 322.753906 231.765625 322.03125 C 267.289062 318.792969 302.632812 311.933594 337.273438 301.019531 C 341.664062 299.617188 344.789062 295.722656 345.152344 291.101562 C 345.511719 286.484375 343.046875 282.160156 338.925781 280.097656 Z M 338.925781 280.097656 " fill-opacity="1" fill-rule="nonzero"/></g></svg>