<svg xmlns="http://www.w3.org/2000/svg" xmlns:xlink="http://www.w3.org/1999/xlink" width="500" zoomAndPan="magnify" viewBox="0 0 375 374.999991" height="500" preserveAspectRatio="xMidYMid meet" version="1.0"><defs><clipPath id="014d475f56"><path d="M 228 229 L 369 229 L 369 369.660156 L 228 369.660156 Z M 228 229 " clip-rule="nonzero"/></clipPath></defs><path fill="#d9d9d9" d="M 155.773438 296.367188 C 152.925781 296.367188 150.078125 296.28125 147.238281 296.109375 C 144.394531 295.9375 141.558594 295.675781 138.734375 295.328125 C 135.90625 294.980469 133.09375 294.546875 130.292969 294.027344 C 127.496094 293.507812 124.714844 292.902344 121.949219 292.210938 C 119.1875 291.519531 116.449219 290.746094 113.734375 289.886719 C 111.019531 289.027344 108.332031 288.085938 105.675781 287.0625 C 103.019531 286.039062 100.394531 284.933594 97.804688 283.75 C 95.214844 282.5625 92.667969 281.300781 90.152344 279.957031 C 87.640625 278.617188 85.175781 277.199219 82.75 275.707031 C 80.324219 274.214844 77.949219 272.648438 75.617188 271.007812 C 73.289062 269.371094 71.015625 267.660156 68.789062 265.882812 C 66.566406 264.101562 64.398438 262.257812 62.289062 260.347656 C 60.179688 258.433594 58.128906 256.460938 56.140625 254.421875 C 54.148438 252.382812 52.226562 250.285156 50.363281 248.132812 C 48.503906 245.976562 46.710938 243.765625 44.988281 241.5 C 43.261719 239.234375 41.609375 236.914062 40.027344 234.546875 C 38.445312 232.179688 36.933594 229.765625 35.5 227.308594 C 34.066406 224.847656 32.710938 222.34375 31.429688 219.800781 C 30.148438 217.257812 28.945312 214.679688 27.824219 212.0625 C 26.703125 209.445312 25.660156 206.792969 24.703125 204.113281 C 23.742188 201.433594 22.867188 198.722656 22.070312 195.988281 C 21.277344 193.253906 20.570312 190.496094 19.945312 187.71875 C 19.320312 184.941406 18.785156 182.144531 18.332031 179.335938 C 17.878906 176.523438 17.511719 173.699219 17.234375 170.867188 C 16.953125 168.03125 16.761719 165.191406 16.65625 162.347656 C 16.550781 159.5 16.535156 156.65625 16.605469 153.808594 C 16.675781 150.960938 16.832031 148.121094 17.078125 145.28125 C 17.320312 142.445312 17.652344 139.617188 18.070312 136.800781 C 18.488281 133.984375 18.992188 131.183594 19.582031 128.398438 C 20.171875 125.609375 20.847656 122.847656 21.605469 120.101562 C 22.367188 117.355469 23.210938 114.640625 24.136719 111.945312 C 25.0625 109.253906 26.070312 106.589844 27.160156 103.960938 C 28.25 101.332031 29.421875 98.734375 30.671875 96.175781 C 31.917969 93.617188 33.246094 91.097656 34.652344 88.621094 C 36.054688 86.144531 37.53125 83.710938 39.085938 81.324219 C 40.640625 78.9375 42.265625 76.601562 43.960938 74.316406 C 45.660156 72.027344 47.421875 69.796875 49.257812 67.617188 C 51.089844 65.4375 52.992188 63.316406 54.953125 61.257812 C 56.917969 59.195312 58.945312 57.195312 61.03125 55.257812 C 63.117188 53.320312 65.261719 51.449219 67.464844 49.640625 C 69.664062 47.835938 71.921875 46.097656 74.230469 44.429688 C 76.539062 42.765625 78.894531 41.167969 81.300781 39.644531 C 83.707031 38.125 86.160156 36.675781 88.652344 35.304688 C 91.148438 33.929688 93.683594 32.636719 96.257812 31.421875 C 98.832031 30.203125 101.441406 29.066406 104.085938 28.011719 C 106.730469 26.953125 109.40625 25.980469 112.109375 25.085938 C 114.816406 24.195312 117.542969 23.386719 120.296875 22.664062 C 123.050781 21.9375 125.824219 21.296875 128.617188 20.742188 C 131.410156 20.191406 134.21875 19.722656 137.039062 19.339844 C 139.863281 18.957031 142.695312 18.664062 145.535156 18.453125 C 148.375 18.246094 151.21875 18.125 154.066406 18.089844 C 156.914062 18.058594 159.757812 18.113281 162.601562 18.253906 C 165.445312 18.394531 168.285156 18.621094 171.113281 18.9375 C 173.945312 19.253906 176.761719 19.65625 179.566406 20.144531 C 182.371094 20.632812 185.160156 21.207031 187.929688 21.863281 C 190.699219 22.523438 193.449219 23.269531 196.171875 24.097656 C 198.898438 24.925781 201.59375 25.835938 204.261719 26.828125 C 206.929688 27.824219 209.566406 28.898438 212.167969 30.054688 C 214.773438 31.210938 217.335938 32.445312 219.863281 33.757812 C 222.390625 35.070312 224.875 36.457031 227.316406 37.925781 C 229.757812 39.390625 232.152344 40.929688 234.5 42.542969 C 236.847656 44.152344 239.140625 45.835938 241.386719 47.589844 C 243.628906 49.34375 245.816406 51.164062 247.949219 53.054688 C 250.082031 54.941406 252.152344 56.890625 254.164062 58.90625 C 256.582031 61.320312 258.910156 63.820312 261.140625 66.40625 C 263.375 68.996094 265.511719 71.660156 267.546875 74.402344 C 269.582031 77.144531 271.515625 79.960938 273.347656 82.847656 C 275.175781 85.730469 276.894531 88.679688 278.507812 91.695312 C 280.121094 94.707031 281.617188 97.773438 283.003906 100.898438 C 284.390625 104.019531 285.660156 107.191406 286.8125 110.40625 C 287.964844 113.625 288.996094 116.878906 289.90625 120.171875 C 290.820312 123.464844 291.609375 126.785156 292.277344 130.136719 C 292.945312 133.488281 293.488281 136.859375 293.90625 140.25 C 294.324219 143.640625 294.621094 147.042969 294.789062 150.457031 C 294.957031 153.871094 295 157.285156 294.914062 160.699219 C 294.832031 164.117188 294.621094 167.523438 294.289062 170.925781 C 293.953125 174.324219 293.492188 177.707031 292.910156 181.074219 C 292.324219 184.441406 291.617188 187.78125 290.789062 191.097656 C 289.957031 194.410156 289.007812 197.691406 287.933594 200.933594 C 286.863281 204.179688 285.671875 207.378906 284.363281 210.535156 C 283.054688 213.691406 281.632812 216.796875 280.097656 219.847656 C 278.558594 222.898438 276.914062 225.890625 275.15625 228.820312 C 273.398438 231.75 271.535156 234.613281 269.566406 237.40625 C 267.597656 240.199219 265.53125 242.914062 263.363281 245.554688 C 261.195312 248.195312 258.929688 250.753906 256.574219 253.226562 C 254.21875 255.703125 251.773438 258.085938 249.242188 260.378906 C 246.707031 262.671875 244.09375 264.871094 241.398438 266.972656 C 238.703125 269.070312 235.9375 271.070312 233.09375 272.96875 C 230.253906 274.863281 227.34375 276.65625 224.371094 278.335938 C 221.398438 280.019531 218.367188 281.589844 215.277344 283.050781 C 212.1875 284.507812 209.046875 285.851562 205.859375 287.078125 C 202.667969 288.308594 199.441406 289.417969 196.167969 290.40625 C 192.898438 291.394531 189.597656 292.261719 186.261719 293.007812 C 182.929688 293.757812 179.570312 294.378906 176.191406 294.878906 C 172.8125 295.375 169.417969 295.75 166.007812 296 C 162.601562 296.246094 159.1875 296.371094 155.773438 296.367188 Z M 155.773438 48.738281 C 153.699219 48.734375 151.625 48.789062 149.554688 48.902344 C 147.484375 49.015625 145.417969 49.191406 143.355469 49.421875 C 141.296875 49.65625 139.242188 49.949219 137.199219 50.296875 C 135.152344 50.648438 133.121094 51.054688 131.101562 51.523438 C 129.078125 51.988281 127.074219 52.515625 125.082031 53.09375 C 123.089844 53.675781 121.117188 54.316406 119.164062 55.011719 C 117.210938 55.703125 115.277344 56.457031 113.367188 57.261719 C 111.453125 58.066406 109.566406 58.925781 107.707031 59.839844 C 105.84375 60.753906 104.007812 61.71875 102.203125 62.738281 C 100.394531 63.757812 98.621094 64.828125 96.875 65.949219 C 95.128906 67.066406 93.417969 68.238281 91.738281 69.457031 C 90.0625 70.675781 88.417969 71.941406 86.8125 73.253906 C 85.207031 74.566406 83.640625 75.925781 82.113281 77.328125 C 80.585938 78.730469 79.097656 80.175781 77.652344 81.664062 C 76.207031 83.152344 74.804688 84.679688 73.449219 86.246094 C 72.089844 87.816406 70.78125 89.421875 69.515625 91.0625 C 68.25 92.707031 67.03125 94.386719 65.863281 96.097656 C 64.691406 97.8125 63.574219 99.558594 62.503906 101.335938 C 61.433594 103.113281 60.417969 104.917969 59.453125 106.753906 C 58.484375 108.589844 57.574219 110.453125 56.714844 112.339844 C 55.855469 114.226562 55.050781 116.136719 54.300781 118.074219 C 53.550781 120.007812 52.859375 121.960938 52.222656 123.933594 C 51.582031 125.90625 51.003906 127.898438 50.480469 129.90625 C 49.957031 131.910156 49.492188 133.933594 49.082031 135.964844 C 48.675781 138 48.328125 140.042969 48.035156 142.097656 C 47.746094 144.152344 47.515625 146.210938 47.34375 148.277344 C 47.167969 150.34375 47.058594 152.414062 47.003906 154.488281 C 46.949219 156.5625 46.953125 158.636719 47.019531 160.707031 C 47.085938 162.78125 47.210938 164.851562 47.394531 166.917969 C 47.578125 168.984375 47.820312 171.042969 48.121094 173.09375 C 48.421875 175.148438 48.785156 177.1875 49.203125 179.21875 C 49.621094 181.25 50.097656 183.269531 50.632812 185.273438 C 51.167969 187.277344 51.757812 189.265625 52.40625 191.234375 C 53.054688 193.203125 53.757812 195.15625 54.519531 197.085938 C 55.277344 199.015625 56.09375 200.921875 56.964844 202.804688 C 57.832031 204.6875 58.753906 206.542969 59.730469 208.375 C 60.707031 210.203125 61.734375 212.003906 62.8125 213.777344 C 63.890625 215.546875 65.019531 217.289062 66.199219 218.992188 C 67.378906 220.699219 68.605469 222.371094 69.878906 224.007812 C 71.152344 225.644531 72.472656 227.242188 73.839844 228.804688 C 75.207031 230.363281 76.617188 231.886719 78.070312 233.363281 C 79.523438 234.84375 81.015625 236.28125 82.554688 237.675781 C 84.089844 239.070312 85.664062 240.417969 87.277344 241.722656 C 88.890625 243.027344 90.539062 244.285156 92.222656 245.492188 C 93.90625 246.703125 95.625 247.863281 97.378906 248.976562 C 99.128906 250.085938 100.910156 251.144531 102.722656 252.15625 C 104.535156 253.164062 106.375 254.121094 108.242188 255.023438 C 110.109375 255.925781 112 256.777344 113.917969 257.570312 C 115.832031 258.367188 117.769531 259.105469 119.726562 259.789062 C 121.683594 260.472656 123.660156 261.101562 125.65625 261.671875 C 127.648438 262.242188 129.65625 262.753906 131.679688 263.210938 C 133.703125 263.667969 135.738281 264.0625 137.785156 264.402344 C 139.832031 264.742188 141.886719 265.023438 143.949219 265.242188 C 146.011719 265.464844 148.078125 265.625 150.148438 265.730469 C 152.222656 265.832031 154.292969 265.875 156.367188 265.859375 C 158.441406 265.84375 160.515625 265.769531 162.585938 265.632812 C 164.652344 265.496094 166.71875 265.304688 168.777344 265.050781 C 170.835938 264.796875 172.886719 264.484375 174.925781 264.117188 C 176.964844 263.746094 178.996094 263.316406 181.011719 262.828125 C 183.027344 262.34375 185.027344 261.796875 187.011719 261.195312 C 189 260.59375 190.964844 259.9375 192.910156 259.222656 C 194.859375 258.507812 196.785156 257.738281 198.6875 256.914062 C 200.589844 256.089844 202.46875 255.210938 204.320312 254.28125 C 206.175781 253.347656 208 252.363281 209.796875 251.324219 C 211.589844 250.289062 213.355469 249.203125 215.089844 248.0625 C 216.824219 246.925781 218.523438 245.738281 220.191406 244.503906 C 221.855469 243.269531 223.488281 241.984375 225.078125 240.65625 C 226.671875 239.328125 228.226562 237.953125 229.738281 236.535156 C 231.253906 235.121094 232.726562 233.660156 234.15625 232.15625 C 235.585938 230.65625 236.972656 229.113281 238.3125 227.53125 C 239.65625 225.949219 240.949219 224.332031 242.199219 222.675781 C 243.449219 221.019531 244.648438 219.328125 245.800781 217.605469 C 246.953125 215.878906 248.054688 214.121094 249.105469 212.335938 C 250.15625 210.546875 251.15625 208.730469 252.105469 206.886719 C 253.050781 205.039062 253.945312 203.167969 254.785156 201.273438 C 255.625 199.375 256.410156 197.457031 257.140625 195.515625 C 257.871094 193.574219 258.546875 191.613281 259.164062 189.632812 C 259.78125 187.65625 260.339844 185.660156 260.84375 183.644531 C 261.347656 181.632812 261.792969 179.609375 262.179688 177.570312 C 262.566406 175.535156 262.898438 173.488281 263.167969 171.429688 C 263.4375 169.375 263.648438 167.3125 263.800781 165.242188 C 263.949219 163.175781 264.042969 161.101562 264.078125 159.027344 C 264.109375 156.953125 264.082031 154.882812 263.996094 152.808594 C 263.910156 150.738281 263.765625 148.667969 263.5625 146.605469 C 263.359375 144.539062 263.09375 142.484375 262.773438 140.433594 C 262.449219 138.386719 262.070312 136.347656 261.628906 134.320312 C 261.191406 132.292969 260.695312 130.28125 260.140625 128.28125 C 259.585938 126.285156 258.972656 124.300781 258.304688 122.339844 C 257.636719 120.375 256.914062 118.433594 256.136719 116.511719 C 255.355469 114.589844 254.523438 112.691406 253.632812 110.816406 C 252.746094 108.941406 251.804688 107.09375 250.8125 105.273438 C 249.816406 103.453125 248.773438 101.664062 247.675781 99.902344 C 246.578125 98.140625 245.433594 96.414062 244.238281 94.71875 C 243.039062 93.023438 241.796875 91.363281 240.507812 89.742188 C 239.214844 88.117188 237.878906 86.53125 236.5 84.984375 C 235.117188 83.4375 233.691406 81.933594 232.222656 80.464844 C 229.71875 77.960938 227.097656 75.585938 224.363281 73.335938 C 221.625 71.089844 218.785156 68.980469 215.839844 67.011719 C 212.898438 65.042969 209.863281 63.222656 206.742188 61.550781 C 203.617188 59.878906 200.421875 58.363281 197.148438 57.007812 C 193.878906 55.648438 190.546875 54.457031 187.160156 53.425781 C 183.773438 52.394531 180.339844 51.53125 176.867188 50.835938 C 173.394531 50.144531 169.894531 49.621094 166.371094 49.269531 C 162.847656 48.921875 159.3125 48.742188 155.773438 48.738281 Z M 155.773438 48.738281 " fill-opacity="1" fill-rule="nonzero"/><g clip-path="url(#014d475f56)"><path fill="#d9d9d9" d="M 353.019531 369.835938 C 350.992188 369.828125 349.046875 369.433594 347.179688 368.652344 C 345.3125 367.871094 343.664062 366.761719 342.238281 365.328125 L 232.53125 255.695312 C 231.820312 254.984375 231.183594 254.210938 230.628906 253.375 C 230.070312 252.539062 229.597656 251.660156 229.214844 250.730469 C 228.828125 249.804688 228.539062 248.847656 228.34375 247.859375 C 228.148438 246.875 228.046875 245.882812 228.046875 244.875 C 228.046875 243.871094 228.148438 242.878906 228.34375 241.890625 C 228.539062 240.90625 228.828125 239.949219 229.214844 239.023438 C 229.597656 238.09375 230.070312 237.210938 230.628906 236.378906 C 231.183594 235.542969 231.820312 234.769531 232.53125 234.058594 C 233.238281 233.347656 234.011719 232.714844 234.847656 232.15625 C 235.683594 231.597656 236.566406 231.125 237.492188 230.742188 C 238.421875 230.359375 239.378906 230.066406 240.363281 229.871094 C 241.347656 229.675781 242.34375 229.578125 243.347656 229.578125 C 244.351562 229.578125 245.347656 229.675781 246.332031 229.871094 C 247.316406 230.066406 248.273438 230.359375 249.203125 230.742188 C 250.128906 231.125 251.011719 231.597656 251.847656 232.15625 C 252.683594 232.714844 253.457031 233.347656 254.164062 234.058594 L 363.796875 343.765625 C 364.324219 344.300781 364.8125 344.867188 365.257812 345.46875 C 365.703125 346.074219 366.101562 346.707031 366.453125 347.367188 C 366.804688 348.027344 367.105469 348.714844 367.359375 349.417969 C 367.609375 350.125 367.808594 350.847656 367.953125 351.582031 C 368.097656 352.316406 368.191406 353.058594 368.226562 353.808594 C 368.261719 354.554688 368.242188 355.304688 368.171875 356.050781 C 368.097656 356.796875 367.96875 357.53125 367.785156 358.257812 C 367.605469 358.988281 367.371094 359.695312 367.082031 360.390625 C 366.796875 361.082031 366.460938 361.75 366.078125 362.394531 C 365.691406 363.039062 365.261719 363.648438 364.789062 364.230469 C 364.3125 364.808594 363.796875 365.351562 363.246094 365.855469 C 362.691406 366.359375 362.101562 366.820312 361.480469 367.238281 C 360.855469 367.65625 360.207031 368.027344 359.53125 368.351562 C 358.855469 368.671875 358.15625 368.945312 357.441406 369.164062 C 356.722656 369.382812 355.996094 369.550781 355.253906 369.664062 C 354.511719 369.777344 353.765625 369.835938 353.019531 369.835938 Z M 353.019531 369.835938 " fill-opacity="1" fill-rule="nonzero"/></g></svg>