<svg xmlns="http://www.w3.org/2000/svg" xmlns:xlink="http://www.w3.org/1999/xlink" width="1080" zoomAndPan="magnify" viewBox="0 0 810 570" height="750" preserveAspectRatio="xMidYMid meet" version="1.0"><defs><clipPath id="66b652af6a"><path d="M 184.257812 60.507812 L 626.007812 60.507812 L 626.007812 502.257812 L 184.257812 502.257812 Z M 184.257812 60.507812 " clip-rule="nonzero"/></clipPath></defs><g clip-path="url(#66b652af6a)"><path fill="#000000" d="M 626.085938 281.421875 C 626.085938 285.039062 626 288.652344 625.820312 292.261719 C 625.644531 295.875 625.378906 299.476562 625.023438 303.074219 C 624.667969 306.675781 624.226562 310.261719 623.695312 313.835938 C 623.164062 317.414062 622.546875 320.976562 621.84375 324.519531 C 621.136719 328.066406 620.34375 331.59375 619.464844 335.101562 C 618.585938 338.605469 617.625 342.089844 616.574219 345.550781 C 615.523438 349.011719 614.390625 352.441406 613.171875 355.847656 C 611.953125 359.25 610.652344 362.621094 609.269531 365.960938 C 607.886719 369.304688 606.421875 372.605469 604.875 375.875 C 603.332031 379.144531 601.707031 382.371094 600 385.5625 C 598.296875 388.75 596.515625 391.894531 594.65625 394.996094 C 592.796875 398.097656 590.863281 401.148438 588.855469 404.15625 C 586.847656 407.160156 584.765625 410.117188 582.613281 413.019531 C 580.457031 415.925781 578.234375 418.773438 575.941406 421.570312 C 573.648438 424.363281 571.289062 427.101562 568.859375 429.78125 C 566.429688 432.457031 563.9375 435.074219 561.382812 437.632812 C 558.824219 440.1875 556.207031 442.679688 553.53125 445.109375 C 550.851562 447.539062 548.113281 449.898438 545.320312 452.191406 C 542.523438 454.484375 539.675781 456.707031 536.769531 458.863281 C 533.867188 461.015625 530.910156 463.097656 527.90625 465.105469 C 524.898438 467.113281 521.847656 469.046875 518.746094 470.90625 C 515.644531 472.765625 512.5 474.546875 509.3125 476.25 C 506.121094 477.957031 502.894531 479.582031 499.625 481.125 C 496.355469 482.671875 493.054688 484.136719 489.710938 485.519531 C 486.371094 486.902344 483 488.203125 479.597656 489.421875 C 476.191406 490.640625 472.761719 491.773438 469.300781 492.824219 C 465.839844 493.875 462.355469 494.835938 458.851562 495.714844 C 455.34375 496.59375 451.816406 497.386719 448.269531 498.09375 C 444.726562 498.796875 441.164062 499.414062 437.585938 499.945312 C 434.011719 500.476562 430.425781 500.917969 426.824219 501.273438 C 423.226562 501.628906 419.625 501.894531 416.011719 502.070312 C 412.402344 502.25 408.789062 502.335938 405.171875 502.335938 C 401.558594 502.335938 397.945312 502.25 394.332031 502.070312 C 390.722656 501.894531 387.117188 501.628906 383.519531 501.273438 C 379.921875 500.917969 376.335938 500.476562 372.757812 499.945312 C 369.179688 499.414062 365.621094 498.796875 362.074219 498.09375 C 358.527344 497.386719 355 496.59375 351.496094 495.714844 C 347.988281 494.835938 344.503906 493.875 341.042969 492.824219 C 337.585938 491.773438 334.152344 490.640625 330.75 489.421875 C 327.34375 488.203125 323.972656 486.902344 320.632812 485.519531 C 317.292969 484.136719 313.988281 482.671875 310.71875 481.125 C 307.453125 479.582031 304.222656 477.957031 301.035156 476.25 C 297.847656 474.546875 294.699219 472.765625 291.601562 470.90625 C 288.5 469.046875 285.445312 467.113281 282.4375 465.105469 C 279.433594 463.097656 276.476562 461.015625 273.574219 458.863281 C 270.671875 456.707031 267.820312 454.484375 265.027344 452.191406 C 262.230469 449.898438 259.496094 447.539062 256.816406 445.109375 C 254.136719 442.679688 251.519531 440.1875 248.960938 437.632812 C 246.40625 435.074219 243.914062 432.457031 241.484375 429.78125 C 239.058594 427.101562 236.695312 424.363281 234.402344 421.570312 C 232.109375 418.773438 229.886719 415.925781 227.734375 413.019531 C 225.578125 410.117188 223.496094 407.160156 221.488281 404.15625 C 219.480469 401.148438 217.546875 398.097656 215.6875 394.996094 C 213.828125 391.894531 212.046875 388.75 210.34375 385.5625 C 208.640625 382.371094 207.015625 379.144531 205.46875 375.875 C 203.921875 372.605469 202.457031 369.304688 201.074219 365.960938 C 199.691406 362.621094 198.390625 359.25 197.171875 355.847656 C 195.953125 352.441406 194.820312 349.011719 193.769531 345.550781 C 192.722656 342.089844 191.757812 338.605469 190.878906 335.101562 C 190 331.59375 189.207031 328.066406 188.503906 324.519531 C 187.796875 320.976562 187.179688 317.414062 186.648438 313.835938 C 186.117188 310.261719 185.675781 306.675781 185.320312 303.074219 C 184.96875 299.476562 184.703125 295.875 184.523438 292.261719 C 184.347656 288.652344 184.257812 285.039062 184.257812 281.421875 C 184.257812 277.808594 184.347656 274.195312 184.523438 270.582031 C 184.703125 266.972656 184.96875 263.367188 185.320312 259.769531 C 185.675781 256.171875 186.117188 252.585938 186.648438 249.007812 C 187.179688 245.429688 187.796875 241.871094 188.503906 238.324219 C 189.207031 234.777344 190 231.25 190.878906 227.746094 C 191.757812 224.238281 192.722656 220.753906 193.769531 217.292969 C 194.820312 213.835938 195.953125 210.402344 197.171875 207 C 198.390625 203.59375 199.691406 200.222656 201.074219 196.882812 C 202.457031 193.542969 203.921875 190.238281 205.46875 186.96875 C 207.015625 183.703125 208.640625 180.472656 210.34375 177.285156 C 212.046875 174.097656 213.828125 170.949219 215.6875 167.851562 C 217.546875 164.75 219.480469 161.695312 221.488281 158.6875 C 223.496094 155.683594 225.578125 152.726562 227.734375 149.824219 C 229.886719 146.921875 232.109375 144.070312 234.402344 141.277344 C 236.695312 138.480469 239.058594 135.746094 241.484375 133.066406 C 243.914062 130.386719 246.40625 127.769531 248.960938 125.210938 C 251.519531 122.65625 254.136719 120.164062 256.816406 117.734375 C 259.496094 115.308594 262.230469 112.945312 265.027344 110.652344 C 267.820312 108.359375 270.671875 106.136719 273.574219 103.984375 C 276.476562 101.828125 279.433594 99.746094 282.4375 97.738281 C 285.445312 95.730469 288.5 93.796875 291.601562 91.9375 C 294.699219 90.078125 297.847656 88.296875 301.035156 86.59375 C 304.222656 84.890625 307.453125 83.265625 310.71875 81.71875 C 313.988281 80.171875 317.292969 78.707031 320.632812 77.324219 C 323.972656 75.941406 327.34375 74.640625 330.75 73.421875 C 334.152344 72.203125 337.585938 71.070312 341.042969 70.019531 C 344.503906 68.972656 347.988281 68.007812 351.496094 67.128906 C 355 66.25 358.527344 65.457031 362.074219 64.753906 C 365.621094 64.046875 369.179688 63.429688 372.757812 62.898438 C 376.335938 62.367188 379.921875 61.925781 383.519531 61.570312 C 387.117188 61.21875 390.722656 60.953125 394.332031 60.773438 C 397.945312 60.597656 401.558594 60.507812 405.171875 60.507812 C 408.789062 60.507812 412.402344 60.597656 416.011719 60.773438 C 419.625 60.953125 423.226562 61.21875 426.824219 61.570312 C 430.425781 61.925781 434.011719 62.367188 437.585938 62.898438 C 441.164062 63.429688 444.726562 64.046875 448.269531 64.753906 C 451.816406 65.457031 455.34375 66.25 458.851562 67.128906 C 462.355469 68.007812 465.839844 68.972656 469.300781 70.019531 C 472.761719 71.070312 476.191406 72.203125 479.597656 73.421875 C 483 74.640625 486.371094 75.941406 489.710938 77.324219 C 493.054688 78.707031 496.355469 80.171875 499.625 81.71875 C 502.894531 83.265625 506.121094 84.890625 509.3125 86.59375 C 512.5 88.296875 515.644531 90.078125 518.746094 91.9375 C 521.847656 93.796875 524.898438 95.730469 527.90625 97.738281 C 530.910156 99.746094 533.867188 101.828125 536.769531 103.984375 C 539.675781 106.136719 542.523438 108.359375 545.320312 110.652344 C 548.113281 112.945312 550.851562 115.308594 553.53125 117.734375 C 556.207031 120.164062 558.824219 122.65625 561.382812 125.210938 C 563.9375 127.769531 566.429688 130.386719 568.859375 133.066406 C 571.289062 135.746094 573.648438 138.480469 575.941406 141.277344 C 578.234375 144.070312 580.457031 146.921875 582.613281 149.824219 C 584.765625 152.726562 586.847656 155.683594 588.855469 158.6875 C 590.863281 161.695312 592.796875 164.75 594.65625 167.851562 C 596.515625 170.949219 598.296875 174.097656 600 177.285156 C 601.707031 180.472656 603.332031 183.703125 604.875 186.96875 C 606.421875 190.238281 607.886719 193.542969 609.269531 196.882812 C 610.652344 200.222656 611.953125 203.59375 613.171875 207 C 614.390625 210.402344 615.523438 213.835938 616.574219 217.292969 C 617.625 220.753906 618.585938 224.238281 619.464844 227.746094 C 620.34375 231.25 621.136719 234.777344 621.84375 238.324219 C 622.546875 241.871094 623.164062 245.429688 623.695312 249.007812 C 624.226562 252.585938 624.667969 256.171875 625.023438 259.769531 C 625.378906 263.367188 625.644531 266.972656 625.820312 270.582031 C 626 274.195312 626.085938 277.808594 626.085938 281.421875 Z M 626.085938 281.421875 " fill-opacity="1" fill-rule="nonzero"/></g><path fill="#25f4ee" d="M 375.847656 249.839844 L 375.847656 237.855469 C 371.824219 237.304688 367.746094 236.972656 363.585938 236.972656 C 313.429688 236.972656 272.628906 277.773438 272.628906 327.933594 C 272.628906 358.710938 288.007812 385.9375 311.46875 402.414062 C 296.324219 386.152344 287.339844 364.378906 287.339844 340.464844 C 287.339844 291.035156 326.6875 250.980469 375.847656 249.839844 Z M 375.847656 249.839844 " fill-opacity="1" fill-rule="nonzero"/><path fill="#25f4ee" d="M 377.984375 382.269531 C 400.367188 382.269531 418.882812 364.203125 419.707031 342.035156 L 419.902344 144.25 L 455.761719 144.25 C 455.761719 144.25 455.703125 143.972656 455.703125 143.972656 C 454.957031 139.914062 454.546875 135.714844 454.546875 131.441406 L 405.132812 131.441406 L 405.054688 329.5 C 404.230469 351.6875 385.96875 369.476562 363.585938 369.476562 C 356.625 369.476562 350.089844 367.734375 344.324219 364.710938 C 351.875 375.167969 364.136719 382.289062 378.003906 382.289062 Z M 377.984375 382.269531 " fill-opacity="1" fill-rule="nonzero"/><path fill="#25f4ee" d="M 523.320312 211.765625 L 523.320312 200.152344 C 509.507812 200.152344 496.660156 196.054688 485.871094 189.011719 C 495.464844 200.035156 508.507812 208.589844 523.320312 211.746094 Z M 523.320312 211.765625 " fill-opacity="1" fill-rule="nonzero"/><path fill="#fe2c55" d="M 485.871094 189.03125 C 475.359375 176.949219 468.964844 161.195312 468.964844 143.953125 L 455.507812 143.953125 C 459 162.785156 470.394531 178.949219 485.871094 189.03125 Z M 485.871094 189.03125 " fill-opacity="1" fill-rule="nonzero"/><path fill="#fe2c55" d="M 363.585938 285.992188 C 340.675781 285.992188 321.765625 305 321.765625 327.914062 C 321.765625 343.859375 331.082031 357.726562 344.304688 364.691406 C 339.382812 357.867188 336.4375 349.507812 336.4375 340.464844 C 336.4375 317.554688 355.074219 298.921875 377.984375 298.921875 C 382.261719 298.921875 386.359375 299.625 390.246094 300.84375 L 390.246094 250.390625 C 386.222656 249.839844 382.144531 249.507812 377.984375 249.507812 C 377.257812 249.507812 376.554688 249.546875 375.847656 249.566406 L 375.652344 249.566406 C 375.652344 249.566406 375.511719 287.757812 375.511719 287.757812 C 371.628906 286.542969 367.863281 286.011719 363.585938 286.011719 Z M 363.585938 285.992188 " fill-opacity="1" fill-rule="nonzero"/><path fill="#fe2c55" d="M 523.320312 211.179688 L 523.082031 211.140625 L 523.082031 249.292969 C 497.445312 249.292969 473.632812 240.855469 454.25 226.949219 L 454.25 327.914062 C 454.25 378.070312 413.746094 418.617188 363.585938 418.617188 C 344.207031 418.617188 326.238281 412.75 311.449219 402.375 C 328.0625 420.203125 351.738281 431.40625 377.984375 431.40625 C 428.144531 431.40625 468.945312 390.605469 468.945312 340.445312 L 468.945312 240.011719 C 488.324219 253.921875 512.078125 262.121094 537.699219 262.121094 L 537.699219 212.707031 C 532.753906 212.707031 527.949219 212.179688 523.300781 211.179688 Z M 523.320312 211.179688 " fill-opacity="1" fill-rule="nonzero"/><path fill="#ffffff" d="M 454.546875 327.914062 L 454.546875 227.480469 C 473.925781 241.386719 497.679688 249.585938 523.300781 249.585938 L 523.300781 211.179688 C 508.488281 208 495.464844 200.054688 485.851562 189.03125 C 470.375 178.929688 459.195312 162.785156 455.703125 143.953125 L 419.511719 143.953125 L 419.433594 342.015625 C 418.609375 364.203125 400.347656 381.992188 377.964844 381.992188 C 364.097656 381.992188 351.835938 375.148438 344.285156 364.671875 C 331.0625 357.707031 322.019531 343.859375 322.019531 327.894531 C 322.019531 304.980469 340.65625 286.347656 363.566406 286.347656 C 367.84375 286.347656 371.941406 287.050781 375.828125 288.269531 L 375.828125 249.527344 C 326.648438 250.683594 287.007812 290.996094 287.007812 340.445312 C 287.007812 364.359375 296.304688 386.132812 311.429688 402.394531 C 326.199219 412.769531 344.167969 418.871094 363.566406 418.871094 C 413.726562 418.871094 454.527344 378.070312 454.527344 327.914062 Z M 454.546875 327.914062 " fill-opacity="1" fill-rule="nonzero"/></svg>